<?xml version="1.0" encoding="us-ascii" standalone="no"?><svg xmlns="http://www.w3.org/2000/svg" xmlns:xlink="http://www.w3.org/1999/xlink" contentStyleType="text/css" height="1142px" preserveAspectRatio="none" style="width:801px;height:1142px;background:#FFFFFF;" version="1.1" viewBox="0 0 801 1142" width="801px" zoomAndPan="magnify"><defs/><g><!--cluster spa--><g id="cluster_spa"><polygon fill="none" points="10.5,7,10.5,7.2102,20.463,6.5857,30.4259,7.1933,40.3889,7.3997,50.3519,6.2866,60.3148,6.9223,70.2778,6.5735,80.2407,6.6165,90.2037,6.9318,100.1667,6.3086,110.1296,7.5536,120.0926,6.3697,130.0556,6.8022,140.0185,7.4319,149.9815,6.9142,159.9444,7.0682,169.9074,6.9681,179.8704,7.1785,189.8333,7.2391,199.7963,7.5857,209.7593,7.6711,219.7222,7.6793,229.6852,7.2546,239.6481,7.4636,249.6111,7.7022,259.5741,6.2788,269.537,7.6785,279.5,7,279.4622,6.9087,279.9216,7.3108,280.144,7.1404,280.5519,7.4182,281.0088,7.8142,281.2678,7.7322,281.2528,7.726,281.4466,8.0992,281.6649,8.4825,281.8353,8.846,281.8524,9.1459,282,9.5,282.2872,9.5,281.4276,19.4057,282.2844,29.3115,282.5482,39.2172,282.4445,49.123,282.613,59.0287,281.5169,68.9345,281.3478,78.8402,281.3786,88.746,281.9411,98.6517,281.8035,108.5575,282.6814,118.4632,281.8253,128.369,281.6569,138.2747,282.2283,148.1805,281.3332,158.0862,281.4809,167.992,282.649,177.8977,282.4357,187.8035,282.7345,197.7092,281.6782,207.615,282.3192,217.5207,282.5904,227.4265,281.5276,237.3322,281.9041,247.238,282.126,257.1437,282.6518,267.0495,281.9958,276.9552,282.4626,286.861,281.4462,296.7667,281.3227,306.6725,282.5036,316.5782,281.2831,326.484,282.509,336.3897,282.2066,346.2955,281.7321,356.2012,281.6462,366.107,282.4588,376.0127,281.7007,385.9185,282.5919,395.8242,282,405.73,281.8298,405.6595,282.0437,406.1623,281.8563,406.4989,281.6361,406.8219,281.4288,407.1502,281.2678,407.4978,281.3605,407.7215,280.9925,407.8332,280.5823,407.8428,280.2413,408.0197,279.8369,408.0434,279.5,408.23,279.5,408.9465,269.537,408.3849,259.5741,408.4026,249.6111,407.6216,239.6481,407.8248,229.6852,408.7607,219.7222,408.6598,209.7593,408.1871,199.7963,407.9078,189.8333,408.0111,179.8704,407.5438,169.9074,408.6447,159.9444,408.9696,149.9815,408.7564,140.0185,408.9249,130.0556,408.0933,120.0926,408.3172,110.1296,407.8424,100.1667,408.514,90.2037,408.4768,80.2407,408.7824,70.2778,408.0003,60.3148,408.0956,50.3519,408.6735,40.3889,408.7973,30.4259,407.7175,20.463,408.0361,10.5,408.23,10.519,408.276,10.0685,407.8954,9.838,408.0459,9.4722,407.8701,9.0729,407.6132,8.7322,407.4978,8.776,407.5159,8.8102,407.2372,8.343,406.7507,8.3899,406.4773,8.2344,406.12,8,405.73,8.1158,405.73,8.1409,395.8242,8.1135,385.9185,7.3758,376.0127,7.5992,366.107,7.5385,356.2012,8.0638,346.2955,8.0881,336.3897,8.1617,326.484,7.709,316.5782,7.9325,306.6725,7.8798,296.7667,8.5769,286.861,8.4266,276.9552,7.5145,267.0495,7.9271,257.1437,7.4228,247.238,8.2884,237.3322,8.6085,227.4265,8.5446,217.5207,7.5644,207.615,8.464,197.7092,7.2572,187.8035,8.2002,177.8977,7.7007,167.992,8.0967,158.0862,8.2403,148.1805,8.4721,138.2747,7.2801,128.369,8.4755,118.4632,8.1782,108.5575,8.3553,98.6517,8.7478,88.746,8.0055,78.8402,8.1753,68.9345,8.2134,59.0288,8.1972,49.123,7.9992,39.2172,8.7107,29.3115,7.3903,19.4058,8,9.5,8.1741,9.5721,7.9543,9.0668,8.1265,8.724,8.4517,8.4444,8.5945,8.0894,8.7322,7.7322,8.6694,7.5805,9.1386,7.7132,9.4532,7.4729,9.8856,7.5167,10.2315,7.3519,10.5,7" style="stroke:#444444;stroke-width:1.0;stroke-dasharray:7.0,7.0;"/><text fill="#444444" font-family="Comic Sans MS" font-size="16" font-weight="bold" lengthAdjust="spacing" textLength="35" x="127.5" y="33.8516">SPA</text><text fill="#444444" font-family="Comic Sans MS" font-size="12" font-weight="bold" lengthAdjust="spacing" textLength="156" x="67" y="48.7637">[React / Angular / Vue]</text></g><!--cluster shared_code--><g id="cluster_shared_code"><polygon fill="none" points="307.5,708.68,307.5,708.8902,317.398,708.2657,327.2959,708.8733,337.1939,709.0797,347.0918,707.9666,356.9898,708.6023,366.8878,708.2535,376.7857,708.2965,386.6837,708.6118,396.5816,707.9886,406.4796,709.2336,416.3776,708.0497,426.2755,708.4822,436.1735,709.1119,446.0714,708.5942,455.9694,708.7482,465.8673,708.6481,475.7653,708.8585,485.6633,708.9191,495.5612,709.2657,505.4592,709.3511,515.3571,709.3593,525.2551,708.9346,535.1531,709.1436,545.051,709.3822,554.949,707.9588,564.8469,709.3585,574.7449,708.3835,584.6429,709.2138,594.5408,708.185,604.4388,708.6115,614.3367,709.4216,624.2347,708.6313,634.1327,708.7853,644.0306,709.0186,653.9286,709.0962,663.8265,708.6761,673.7245,708.9672,683.6224,708.1076,693.5204,708.9644,703.4184,709.2282,713.3163,709.1245,723.2143,709.293,733.1122,708.1969,743.0102,708.0278,752.9082,708.0586,762.8061,708.6211,772.7041,708.4835,782.602,709.3614,792.5,708.68,792.4777,708.6262,792.8098,708.7208,793.2362,709.0432,793.4756,708.914,793.848,709.1059,794.2678,709.4122,794.4676,709.495,794.5484,709.8214,794.7869,710.213,794.608,710.4318,794.9519,710.8672,795,711.18,795.5904,711.18,794.5276,721.353,794.9041,731.526,795.126,741.699,795.6518,751.872,794.9958,762.045,795.4626,772.218,794.4462,782.391,794.3227,792.564,795.5036,802.737,794.2831,812.91,795.509,823.083,795.2066,833.256,794.7321,843.429,794.6462,853.602,795.4588,863.775,794.7007,873.948,795.5919,884.121,794.4473,894.294,795.6174,904.467,795,914.64,795.1491,914.7018,794.929,915.0248,794.7216,915.3531,794.7844,915.7933,794.6032,916.1325,794.2678,916.4078,794.2894,916.4599,793.9484,916.6368,793.544,916.6605,793.2985,917.0677,792.8733,917.0412,792.5,917.14,792.5,917.3126,782.602,916.5316,772.7041,916.7348,762.8061,917.6707,752.9082,917.5698,743.0102,917.0971,733.1122,916.8178,723.2143,916.9211,713.3163,916.4538,703.4184,917.5547,693.5204,917.8796,683.6224,917.6664,673.7245,917.8349,663.8265,917.0033,653.9286,917.2272,644.0306,916.7524,634.1327,917.424,624.2347,917.3868,614.3367,917.6924,604.4388,916.9103,594.5408,917.0056,584.6429,917.5835,574.7449,917.7073,564.8469,916.6275,554.949,916.9461,545.051,917.2893,535.1531,916.5292,525.2551,917.4934,515.3571,917.398,505.4592,917.0392,495.5612,917.2822,485.6633,917.8687,475.7653,916.8271,465.8673,917.455,455.9694,917.4256,446.0714,917.2558,436.1735,917.2809,426.2755,917.2535,416.3776,916.5158,406.4796,916.7392,396.5816,916.6785,386.6837,917.2038,376.7857,917.2281,366.8878,917.3017,356.9898,916.849,347.0918,917.0725,337.1939,917.0198,327.2959,917.7169,317.398,917.5666,307.5,917.14,307.4381,916.9905,307.1371,916.9711,306.7193,916.6693,306.4761,916.7895,306.1634,916.7416,305.7322,916.4078,305.8999,916.4772,305.4517,915.9987,305.5822,915.7598,305.0641,915.2524,305.2081,915.0191,305,914.64,304.7007,914.64,305.0967,904.467,305.2403,894.294,305.4721,884.121,304.2801,873.948,305.4755,863.775,305.1782,853.602,305.3553,843.429,305.7478,833.256,305.0055,823.083,305.1753,812.91,305.2134,802.737,305.1972,792.564,304.9992,782.391,305.7107,772.218,304.3903,762.045,305.5653,751.872,304.376,741.699,304.4597,731.526,305.04,721.353,305,711.18,305.0087,711.1836,304.9947,710.7636,305.4203,710.5257,305.4729,710.1332,305.8096,709.8585,305.7322,709.4122,305.8173,709.6177,306.0286,709.1277,306.3886,708.9968,306.7764,708.9331,307.1918,708.9359,307.5,708.68" style="stroke:#444444;stroke-width:1.0;stroke-dasharray:7.0,7.0;"/><text fill="#444444" font-family="Comic Sans MS" font-size="16" font-weight="bold" lengthAdjust="spacing" textLength="113" x="493.5" y="735.5316">Shared Code</text><text fill="#444444" font-family="Comic Sans MS" font-size="12" font-weight="bold" lengthAdjust="spacing" textLength="85" x="507.5" y="750.4437">[TypeScript]</text></g><!--cluster backend--><g id="cluster_backend"><polygon fill="none" points="9.5,463.23,9.5,463.4402,19.38,462.8157,29.26,463.4233,39.14,463.6297,49.02,462.5166,58.9,463.1523,68.78,462.8035,78.66,462.8465,88.54,463.1618,98.42,462.5386,108.3,463.7836,118.18,462.5997,128.06,463.0322,137.94,463.6619,147.82,463.1442,157.7,463.2982,167.58,463.1981,177.46,463.4085,187.34,463.4691,197.22,463.8157,207.1,463.9011,216.98,463.9093,226.86,463.4846,236.74,463.6936,246.62,463.9322,256.5,463.23,256.408,463.0079,256.9401,463.5854,257.1693,463.4316,257.6288,463.8337,257.8511,463.6633,258.2678,463.9622,258.2467,463.9535,258.6426,464.4104,258.5457,464.6631,258.7395,465.0363,258.9578,465.4196,259,465.73,259.4162,465.73,258.9961,475.7202,259.2872,485.7103,258.4276,495.7005,259.2844,505.6906,259.5482,515.6808,259.4445,525.6709,259.613,535.6611,258.5169,545.6512,258.3478,555.6414,258.3786,565.6315,258.9411,575.6217,258.8035,585.6118,259.6814,595.602,258.8253,605.5922,258.6569,615.5823,259.2283,625.5725,258.3332,635.5626,258.4809,645.5528,259.649,655.5429,259.4357,665.5331,259.7345,675.5232,258.6782,685.5134,259.3192,695.5035,259.5904,705.4937,258.5276,715.4838,258.9041,725.474,259.126,735.4642,259.6518,745.4543,258.9958,755.4445,259.4626,765.4346,258.4462,775.4248,258.3227,785.4149,259.5036,795.4051,258.2831,805.3952,259.509,815.3854,259.2066,825.3755,258.7321,835.3657,258.6462,845.3558,259.4588,855.346,258.7007,865.3362,259.5919,875.3263,258.4473,885.3165,259.6174,895.3066,259.4843,905.2968,259.245,915.2869,259.0472,925.2771,259.7266,935.2672,259.6136,945.2574,259.1693,955.2475,259.2682,965.2377,258.8697,975.2278,259.7165,985.218,259.1549,995.2082,259.1726,1005.1983,258.3916,1015.1885,258.5948,1025.1786,259.5307,1035.1688,259.4298,1045.1589,258.9571,1055.1491,258.6778,1065.1392,258.7811,1075.1294,258.3138,1085.1195,259.4147,1095.1097,259.7396,1105.0998,259,1115.09,259.1621,1115.1571,259.0676,1115.5322,258.665,1115.7797,258.5875,1116.1618,258.2948,1116.4548,258.2678,1116.8578,258.304,1116.9452,257.9457,1117.0802,257.6311,1117.3208,257.1778,1117.2264,256.8364,1117.4022,256.5,1117.59,256.5,1118.0335,246.62,1118.1573,236.74,1117.0775,226.86,1117.3961,216.98,1117.7393,207.1,1116.9792,197.22,1117.9434,187.34,1117.848,177.46,1117.4892,167.58,1117.7322,157.7,1118.3187,147.82,1117.2771,137.94,1117.905,128.06,1117.8756,118.18,1117.7058,108.3,1117.7309,98.42,1117.7035,88.54,1116.9658,78.66,1117.1892,68.78,1117.1285,58.9,1117.6538,49.02,1117.6781,39.14,1117.7517,29.26,1117.299,19.38,1117.5225,9.5,1117.59,9.4847,1117.553,9.22,1117.6212,8.8473,1117.4285,8.3774,1117.0011,8.0765,1116.9818,7.7322,1116.8578,7.5545,1116.7841,7.6746,1116.541,7.6267,1116.2283,7.4606,1115.8666,7.0123,1115.388,7,1115.09,7.464,1115.09,6.2572,1105.0998,7.2002,1095.1097,6.7007,1085.1195,7.0967,1075.1294,7.2403,1065.1392,7.4721,1055.1491,6.2801,1045.1589,7.4755,1035.1688,7.1782,1025.1786,7.3553,1015.1885,7.7478,1005.1983,7.0055,995.2082,7.1753,985.218,7.2134,975.2278,7.1972,965.2377,6.9992,955.2475,7.7107,945.2574,6.3903,935.2672,7.5653,925.2771,6.376,915.2869,6.4597,905.2968,7.04,895.3066,7.0283,885.3165,6.5072,875.3263,7.4137,865.3362,7.1089,855.346,7.7267,845.3558,7.6671,835.3657,6.5517,825.3755,6.6021,815.3854,6.8708,805.3952,7.3555,795.4051,7.403,785.4149,7.3012,775.4248,6.658,765.4346,7.6364,755.4445,7.6338,745.4543,6.9527,735.4642,6.7609,725.474,6.5986,715.4838,6.7854,705.4937,7.1374,695.5035,6.9316,685.5134,6.5822,675.5232,7.4874,665.5331,6.5411,655.5429,7.5024,645.5528,7.4272,635.5626,7.3719,625.5725,7.6925,615.5823,6.7541,605.5922,6.6994,595.602,7.5189,585.6118,6.4031,575.6217,6.766,565.6315,7.1155,555.6414,7.0687,545.6512,6.6415,535.6611,6.957,525.6709,7.7446,515.6808,7.6485,505.6906,6.4037,495.7005,7.0785,485.7103,6.4861,475.7202,7,465.73,6.9919,465.7266,7.2367,465.4138,7.4222,465.0765,7.2346,464.5845,7.7091,464.3669,7.7322,463.9622,7.7333,463.9648,8.0149,463.6448,8.3793,463.5243,8.8346,463.6235,9.1783,463.4534,9.5,463.23" style="stroke:#444444;stroke-width:1.0;stroke-dasharray:7.0,7.0;"/><text fill="#444444" font-family="Comic Sans MS" font-size="16" font-weight="bold" lengthAdjust="spacing" textLength="76" x="95" y="490.0816">Backend</text><text fill="#444444" font-family="Comic Sans MS" font-size="12" font-weight="bold" lengthAdjust="spacing" textLength="93" x="86.5" y="504.9937">[Spring Boot]</text></g><!--entity ui--><g id="elem_ui"><polygon fill="#85BBF0" points="51.5,76,51.5,76.2102,61.4444,75.5857,71.3889,76.1933,81.3333,76.3997,91.2778,75.2866,101.2222,75.9223,111.1667,75.5735,121.1111,75.6165,131.0556,75.9318,141,75.3086,150.9444,76.5536,160.8889,75.3697,170.8333,75.8022,180.7778,76.4319,190.7222,75.9142,200.6667,76.0682,210.6111,75.9681,220.5556,76.1785,230.5,76,230.5305,76.0736,230.9283,76.3268,231.2927,76.4996,231.6473,76.6485,231.9467,76.6642,232.2678,76.7322,232.4105,76.7914,232.6305,77.1754,232.3386,77.3473,232.9161,77.8794,232.7622,78.1086,233,78.5,233.5338,78.5,232.505,88.5412,232.9315,98.5824,233.7416,108.6236,232.9513,118.6648,233.1053,128.706,233.3386,138.7472,233.4162,148.7884,232.9961,158.8295,233.2872,168.8707,232.4276,178.9119,233,188.9531,233.0876,188.9894,233.0224,189.3766,232.844,189.7169,232.7494,190.092,232.2654,190.3057,232.2678,190.7209,232.1846,190.52,231.8349,190.676,231.5531,190.9957,231.182,191.0997,230.9405,191.5165,230.5,191.4531,230.5,191.2784,220.5556,191.1101,210.6111,191.6814,200.6667,190.7863,190.7222,190.934,180.7778,192.1021,170.8333,191.8888,160.8889,192.1876,150.9444,191.1313,141,191.7723,131.0556,192.0435,121.1111,190.9807,111.1667,191.3573,101.2222,191.5791,91.2778,192.1049,81.3333,191.4489,71.3889,191.9157,61.4444,190.8993,51.5,191.4531,51.4136,191.2446,51.2107,191.4618,50.7014,190.9394,50.5043,191.1705,50.1121,190.931,49.7322,190.7209,49.6497,190.6867,49.4768,190.3222,49.5806,190.0723,49.2007,189.622,49.3287,189.3822,49,188.9531,48.4473,188.9531,49.6174,178.9119,49.4843,168.8707,49.245,158.8295,49.0472,148.7884,49.7266,138.7472,49.6136,128.706,49.1693,118.6648,49.2682,108.6236,48.8697,98.5824,49.7165,88.5412,49,78.5,49.0477,78.5198,49.1996,78.1685,49.1055,77.7153,49.3145,77.3876,49.7492,77.1535,49.7322,76.7322,49.7871,76.8646,50.0803,76.5726,50.3982,76.3401,50.765,76.2255,51.0589,75.9351,51.5,76" style="stroke:#78A8D8;stroke-width:0.5;"/><text fill="#000000" font-family="Comic Sans MS" font-size="12" font-style="italic" lengthAdjust="spacing" textLength="85" x="98.5" y="97.1387">&#171;component&#187;</text><text fill="#000000" font-family="Comic Sans MS" font-size="16" font-weight="bold" lengthAdjust="spacing" textLength="18" x="73" y="114.8203">UI</text><text fill="#000000" font-family="Comic Sans MS" font-size="16" font-weight="bold" lengthAdjust="spacing" textLength="6" x="91" y="114.8203">&#160;</text><text fill="#000000" font-family="Comic Sans MS" font-size="16" font-weight="bold" lengthAdjust="spacing" textLength="112" x="97" y="114.8203">Components</text><text fill="#000000" font-family="Comic Sans MS" font-size="12" font-style="italic" lengthAdjust="spacing" textLength="46" x="118" y="129.7324">[React]</text><text fill="#000000" font-family="Comic Sans MS" font-size="14" lengthAdjust="spacing" textLength="4" x="139" y="145.5576">&#160;</text><text fill="#000000" font-family="Comic Sans MS" font-size="14" lengthAdjust="spacing" textLength="81" x="59" y="161.8545">Implements</text><text fill="#000000" font-family="Comic Sans MS" font-size="14" lengthAdjust="spacing" textLength="4" x="140" y="161.8545">&#160;</text><text fill="#000000" font-family="Comic Sans MS" font-size="14" lengthAdjust="spacing" textLength="13" x="144" y="161.8545">UI</text><text fill="#000000" font-family="Comic Sans MS" font-size="14" lengthAdjust="spacing" textLength="4" x="157" y="161.8545">&#160;</text><text fill="#000000" font-family="Comic Sans MS" font-size="14" lengthAdjust="spacing" textLength="32" x="161" y="161.8545">logic</text><text fill="#000000" font-family="Comic Sans MS" font-size="14" lengthAdjust="spacing" textLength="4" x="193" y="161.8545">&#160;</text><text fill="#000000" font-family="Comic Sans MS" font-size="14" lengthAdjust="spacing" textLength="26" x="197" y="161.8545">and</text><text fill="#000000" font-family="Comic Sans MS" font-size="14" lengthAdjust="spacing" textLength="37" x="72" y="178.1514">client</text><text fill="#000000" font-family="Comic Sans MS" font-size="14" lengthAdjust="spacing" textLength="4" x="109" y="178.1514">&#160;</text><text fill="#000000" font-family="Comic Sans MS" font-size="14" lengthAdjust="spacing" textLength="29" x="113" y="178.1514">side</text><text fill="#000000" font-family="Comic Sans MS" font-size="14" lengthAdjust="spacing" textLength="4" x="142" y="178.1514">&#160;</text><text fill="#000000" font-family="Comic Sans MS" font-size="14" lengthAdjust="spacing" textLength="64" x="146" y="178.1514">validation</text></g><!--entity remix_client--><g id="elem_remix_client"><polygon fill="#85BBF0" points="34.5,266.45,34.5,266.6602,44.6429,266.0357,54.7857,266.6433,64.9286,266.8497,75.0714,265.7366,85.2143,266.3723,95.3571,266.0235,105.5,266.0665,115.6429,266.3818,125.7857,265.7586,135.9286,267.0036,146.0714,265.8197,156.2143,266.2522,166.3571,266.8819,176.5,266.3642,186.6429,266.5182,196.7857,266.4181,206.9286,266.6285,217.0714,266.6891,227.2143,267.0357,237.3571,267.1211,247.5,266.45,247.5866,266.6592,247.886,266.6749,248.2662,266.8857,248.6502,267.1056,248.8222,266.8137,249.2678,267.1822,249.4767,267.2688,249.3229,267.498,249.7251,267.9574,249.5547,268.1797,249.8325,268.5877,250,268.95,250.7416,268.95,249.9513,279.2028,250.1053,289.4557,250.3386,299.7085,250.4162,309.9614,249.9961,320.2142,250.2872,330.467,249.4276,340.7199,250.2844,350.9727,250.5482,361.2256,250.4445,371.4784,250,381.7312,250.1888,381.8094,249.7048,382.0232,249.5063,382.3552,249.3693,382.7126,249.3961,383.138,249.2678,383.499,249.2427,383.4385,249.0011,383.8553,248.5384,383.7381,248.1633,383.8327,247.8827,384.1551,247.5,384.2312,247.5,383.5644,237.3571,383.7121,227.2143,384.8802,217.0714,384.6669,206.9286,384.9657,196.7857,383.9095,186.6429,384.5504,176.5,384.8217,166.3571,383.7588,156.2143,384.1354,146.0714,384.3572,135.9286,384.883,125.7857,384.2271,115.6429,384.6938,105.5,383.6775,95.3571,383.554,85.2143,384.7349,75.0714,383.5143,64.9286,384.7402,54.7857,384.4379,44.6429,383.9633,34.5,384.2312,34.4549,384.1223,34.205,384.2261,33.7547,383.8462,33.5148,383.9742,33.0153,383.4752,32.7322,383.499,32.9224,383.5778,32.7349,383.2072,32.5148,382.8232,32.3074,382.4444,32.3702,382.1775,32,381.7312,32.6136,381.7312,32.1693,371.4784,32.2682,361.2256,31.8697,350.9727,32.7165,340.7199,32.1549,330.467,32.1726,320.2142,31.3916,309.9614,31.5948,299.7085,32.5307,289.4557,32.4298,279.2028,32,268.95,31.9868,268.9445,32.0472,268.5554,32.2255,268.215,32.228,267.8018,32.7135,267.5887,32.7322,267.1822,32.8266,267.41,33.1529,267.1979,33.528,267.1034,33.7755,266.7008,34.1576,266.6233,34.5,266.45" style="stroke:#78A8D8;stroke-width:0.5;"/><text fill="#000000" font-family="Comic Sans MS" font-size="12" font-style="italic" lengthAdjust="spacing" textLength="85" x="98.5" y="287.5887">&#171;component&#187;</text><text fill="#000000" font-family="Comic Sans MS" font-size="16" font-weight="bold" lengthAdjust="spacing" textLength="53" x="86.5" y="305.2703">Remix</text><text fill="#000000" font-family="Comic Sans MS" font-size="16" font-weight="bold" lengthAdjust="spacing" textLength="6" x="139.5" y="305.2703">&#160;</text><text fill="#000000" font-family="Comic Sans MS" font-size="16" font-weight="bold" lengthAdjust="spacing" textLength="50" x="145.5" y="305.2703">Client</text><text fill="#000000" font-family="Comic Sans MS" font-size="14" lengthAdjust="spacing" textLength="4" x="139" y="322.0389">&#160;</text><text fill="#000000" font-family="Comic Sans MS" font-size="14" lengthAdjust="spacing" textLength="81" x="42" y="338.3357">Implements</text><text fill="#000000" font-family="Comic Sans MS" font-size="14" lengthAdjust="spacing" textLength="4" x="123" y="338.3357">&#160;</text><text fill="#000000" font-family="Comic Sans MS" font-size="14" lengthAdjust="spacing" textLength="53" x="127" y="338.3357">routing,</text><text fill="#000000" font-family="Comic Sans MS" font-size="14" lengthAdjust="spacing" textLength="4" x="180" y="338.3357">&#160;</text><text fill="#000000" font-family="Comic Sans MS" font-size="14" lengthAdjust="spacing" textLength="56" x="184" y="338.3357">network</text><text fill="#000000" font-family="Comic Sans MS" font-size="14" lengthAdjust="spacing" textLength="106" x="73" y="354.6326">communication</text><text fill="#000000" font-family="Comic Sans MS" font-size="14" lengthAdjust="spacing" textLength="4" x="179" y="354.6326">&#160;</text><text fill="#000000" font-family="Comic Sans MS" font-size="14" lengthAdjust="spacing" textLength="26" x="183" y="354.6326">and</text><text fill="#000000" font-family="Comic Sans MS" font-size="14" lengthAdjust="spacing" textLength="64" x="109" y="370.9295">hydration</text></g><!--entity ui_component--><g id="elem_ui_component"><polygon fill="#85BBF0" points="589.5,777.68,589.5,777.8902,599.4444,777.2657,609.3889,777.8733,619.3333,778.0797,629.2778,776.9666,639.2222,777.6023,649.1667,777.2535,659.1111,777.2965,669.0556,777.6118,679,776.9886,688.9444,778.2336,698.8889,777.0497,708.8333,777.4822,718.7778,778.1119,728.7222,777.5942,738.6667,777.7482,748.6111,777.6481,758.5556,777.8585,768.5,777.68,768.5305,777.7536,768.9283,778.0068,769.2927,778.1796,769.6473,778.3285,769.9467,778.3442,770.2678,778.4122,770.4105,778.4714,770.6305,778.8554,770.3386,779.0273,770.9161,779.5594,770.7622,779.7886,771,780.18,771.5338,780.18,770.505,790.2212,770.9315,800.2624,771.7416,810.3036,770.9513,820.3448,771.1053,830.386,771.3386,840.4272,771.4162,850.4684,770.9961,860.5095,771.2872,870.5507,770.4276,880.5919,771,890.6331,771.0876,890.6694,771.0224,891.0566,770.844,891.3969,770.7494,891.772,770.2654,891.9857,770.2678,892.4009,770.1846,892.2,769.8349,892.356,769.5531,892.6757,769.182,892.7797,768.9405,893.1965,768.5,893.1331,768.5,892.9584,758.5556,892.7901,748.6111,893.3614,738.6667,892.4663,728.7222,892.614,718.7778,893.7821,708.8333,893.5688,698.8889,893.8676,688.9444,892.8113,679,893.4523,669.0556,893.7235,659.1111,892.6607,649.1667,893.0373,639.2222,893.2591,629.2778,893.7849,619.3333,893.1289,609.3889,893.5957,599.4444,892.5793,589.5,893.1331,589.4136,892.9246,589.2107,893.1418,588.7014,892.6194,588.5043,892.8505,588.1121,892.611,587.7322,892.4009,587.6497,892.3667,587.4768,892.0022,587.5806,891.7523,587.2007,891.302,587.3287,891.0622,587,890.6331,586.4473,890.6331,587.6174,880.5919,587.4843,870.5507,587.245,860.5095,587.0472,850.4684,587.7266,840.4272,587.6136,830.386,587.1693,820.3448,587.2682,810.3036,586.8697,800.2624,587.7165,790.2212,587,780.18,587.0477,780.1998,587.1996,779.8485,587.1055,779.3953,587.3145,779.0676,587.7492,778.8335,587.7322,778.4122,587.7871,778.5446,588.0803,778.2526,588.3982,778.0201,588.765,777.9055,589.0589,777.6151,589.5,777.68" style="stroke:#78A8D8;stroke-width:0.5;"/><text fill="#000000" font-family="Comic Sans MS" font-size="12" font-style="italic" lengthAdjust="spacing" textLength="85" x="636.5" y="798.8187">&#171;component&#187;</text><text fill="#000000" font-family="Comic Sans MS" font-size="16" font-weight="bold" lengthAdjust="spacing" textLength="18" x="616" y="816.5003">UI</text><text fill="#000000" font-family="Comic Sans MS" font-size="16" font-weight="bold" lengthAdjust="spacing" textLength="6" x="634" y="816.5003">&#160;</text><text fill="#000000" font-family="Comic Sans MS" font-size="16" font-weight="bold" lengthAdjust="spacing" textLength="102" x="640" y="816.5003">Component</text><text fill="#000000" font-family="Comic Sans MS" font-size="12" font-style="italic" lengthAdjust="spacing" textLength="41" x="608" y="831.4124">[React</text><text fill="#000000" font-family="Comic Sans MS" font-size="12" font-style="italic" lengthAdjust="spacing" textLength="4" x="649" y="831.4124">&#160;</text><text fill="#000000" font-family="Comic Sans MS" font-size="12" font-style="italic" lengthAdjust="spacing" textLength="4" x="653" y="831.4124">/</text><text fill="#000000" font-family="Comic Sans MS" font-size="12" font-style="italic" lengthAdjust="spacing" textLength="4" x="657" y="831.4124">&#160;</text><text fill="#000000" font-family="Comic Sans MS" font-size="12" font-style="italic" lengthAdjust="spacing" textLength="48" x="661" y="831.4124">Angular</text><text fill="#000000" font-family="Comic Sans MS" font-size="12" font-style="italic" lengthAdjust="spacing" textLength="4" x="709" y="831.4124">&#160;</text><text fill="#000000" font-family="Comic Sans MS" font-size="12" font-style="italic" lengthAdjust="spacing" textLength="4" x="713" y="831.4124">/</text><text fill="#000000" font-family="Comic Sans MS" font-size="12" font-style="italic" lengthAdjust="spacing" textLength="4" x="717" y="831.4124">&#160;</text><text fill="#000000" font-family="Comic Sans MS" font-size="12" font-style="italic" lengthAdjust="spacing" textLength="29" x="721" y="831.4124">Vue]</text><text fill="#000000" font-family="Comic Sans MS" font-size="14" lengthAdjust="spacing" textLength="4" x="677" y="847.2376">&#160;</text><text fill="#000000" font-family="Comic Sans MS" font-size="14" lengthAdjust="spacing" textLength="81" x="597" y="863.5345">Implements</text><text fill="#000000" font-family="Comic Sans MS" font-size="14" lengthAdjust="spacing" textLength="4" x="678" y="863.5345">&#160;</text><text fill="#000000" font-family="Comic Sans MS" font-size="14" lengthAdjust="spacing" textLength="13" x="682" y="863.5345">UI</text><text fill="#000000" font-family="Comic Sans MS" font-size="14" lengthAdjust="spacing" textLength="4" x="695" y="863.5345">&#160;</text><text fill="#000000" font-family="Comic Sans MS" font-size="14" lengthAdjust="spacing" textLength="32" x="699" y="863.5345">logic</text><text fill="#000000" font-family="Comic Sans MS" font-size="14" lengthAdjust="spacing" textLength="4" x="731" y="863.5345">&#160;</text><text fill="#000000" font-family="Comic Sans MS" font-size="14" lengthAdjust="spacing" textLength="26" x="735" y="863.5345">and</text><text fill="#000000" font-family="Comic Sans MS" font-size="14" lengthAdjust="spacing" textLength="37" x="610" y="879.8314">client</text><text fill="#000000" font-family="Comic Sans MS" font-size="14" lengthAdjust="spacing" textLength="4" x="647" y="879.8314">&#160;</text><text fill="#000000" font-family="Comic Sans MS" font-size="14" lengthAdjust="spacing" textLength="29" x="651" y="879.8314">side</text><text fill="#000000" font-family="Comic Sans MS" font-size="14" lengthAdjust="spacing" textLength="4" x="680" y="879.8314">&#160;</text><text fill="#000000" font-family="Comic Sans MS" font-size="14" lengthAdjust="spacing" textLength="64" x="684" y="879.8314">validation</text></g><!--entity data_validation--><g id="elem_data_validation"><polygon fill="#85BBF0" points="351,785.83,351,786.0402,360.9,785.4157,370.8,786.0233,380.7,786.2297,390.6,785.1166,400.5,785.7523,410.4,785.4035,420.3,785.4465,430.2,785.7618,440.1,785.1386,450,786.3836,459.9,785.1997,469.8,785.6322,479.7,786.2619,489.6,785.7442,499.5,785.8982,509.4,785.7981,519.3,786.0085,529.2,786.0691,539.1,786.4157,549,785.83,549.0856,786.0367,549.4402,786.1856,549.7396,786.2013,550.1198,786.4121,550.5038,786.632,550.7678,786.5622,550.5457,786.4702,551.1232,787.0023,550.9693,787.2315,551.3715,787.691,551.2011,787.9133,551.5,788.33,551.4315,788.33,552.2416,798.7918,551.4513,809.2536,551.6053,819.7154,551.8386,830.1772,551.9162,840.639,551.4961,851.1008,551.7872,861.5626,550.9276,872.0244,551.5,882.4862,551.5876,882.5225,551.5224,882.9097,551.344,883.2501,551.2494,883.6251,550.7654,883.8388,550.7678,884.254,550.6846,884.0532,550.3349,884.2091,550.0531,884.5288,549.682,884.6328,549.4405,885.0497,549,884.9862,549,884.8116,539.1,884.6432,529.2,885.2145,519.3,884.3194,509.4,884.4671,499.5,885.6352,489.6,885.4219,479.7,885.7207,469.8,884.6645,459.9,885.3054,450,885.5767,440.1,884.5138,430.2,884.8904,420.3,885.1122,410.4,885.638,400.5,884.9821,390.6,885.4488,380.7,884.4325,370.8,884.309,360.9,885.4899,351,884.9862,350.9085,884.7655,350.7114,884.9965,350.3193,884.757,349.9052,884.4644,349.5407,884.2915,349.2322,884.254,349.3735,884.3125,348.9936,883.8623,349.1216,883.6224,348.6227,883.1228,348.8366,882.9186,348.5,882.4862,348.9843,882.4862,348.745,872.0244,348.5472,861.5626,349.2266,851.1008,349.1136,840.639,348.6693,830.1772,348.7682,819.7154,348.3697,809.2536,349.2165,798.7918,348.5,788.33,348.5477,788.3498,348.6996,787.9985,348.6055,787.5453,348.8145,787.2176,349.2492,786.9835,349.2322,786.5622,349.2871,786.6946,349.5803,786.4026,349.8982,786.1701,350.265,786.0555,350.5589,785.7651,351,785.83" style="stroke:#78A8D8;stroke-width:0.5;"/><text fill="#000000" font-family="Comic Sans MS" font-size="12" font-style="italic" lengthAdjust="spacing" textLength="85" x="407.5" y="806.9687">&#171;component&#187;</text><text fill="#000000" font-family="Comic Sans MS" font-size="16" font-weight="bold" lengthAdjust="spacing" textLength="41" x="384" y="824.6503">Data</text><text fill="#000000" font-family="Comic Sans MS" font-size="16" font-weight="bold" lengthAdjust="spacing" textLength="6" x="425" y="824.6503">&#160;</text><text fill="#000000" font-family="Comic Sans MS" font-size="16" font-weight="bold" lengthAdjust="spacing" textLength="85" x="431" y="824.6503">Validation</text><text fill="#000000" font-family="Comic Sans MS" font-size="12" font-style="italic" lengthAdjust="spacing" textLength="35" x="432.5" y="839.5624">[Zod]</text><text fill="#000000" font-family="Comic Sans MS" font-size="14" lengthAdjust="spacing" textLength="4" x="448" y="855.3876">&#160;</text><text fill="#000000" font-family="Comic Sans MS" font-size="14" lengthAdjust="spacing" textLength="81" x="358.5" y="871.6845">Implements</text><text fill="#000000" font-family="Comic Sans MS" font-size="14" lengthAdjust="spacing" textLength="4" x="439.5" y="871.6845">&#160;</text><text fill="#000000" font-family="Comic Sans MS" font-size="14" lengthAdjust="spacing" textLength="30" x="443.5" y="871.6845">data</text><text fill="#000000" font-family="Comic Sans MS" font-size="14" lengthAdjust="spacing" textLength="4" x="473.5" y="871.6845">&#160;</text><text fill="#000000" font-family="Comic Sans MS" font-size="14" lengthAdjust="spacing" textLength="64" x="477.5" y="871.6845">validation</text></g><!--entity remix_server--><g id="elem_remix_server"><polygon fill="#85BBF0" points="48.5,524.23,48.5,524.4402,58.2222,523.8157,67.9444,524.4233,77.6667,524.6297,87.3889,523.5166,97.1111,524.1523,106.8333,523.8035,116.5556,523.8465,126.2778,524.1618,136,523.5386,145.7222,524.7836,155.4444,523.5997,165.1667,524.0322,174.8889,524.6619,184.6111,524.1442,194.3333,524.2982,204.0556,524.1981,213.7778,524.4085,223.5,524.23,223.5305,524.3036,223.9283,524.5568,224.2927,524.7296,224.6473,524.8785,224.9467,524.8942,225.2678,524.9622,225.4105,525.0214,225.6305,525.4054,225.3386,525.5773,225.9161,526.1094,225.7622,526.3386,226,526.73,226.5338,526.73,225.505,536.7712,225.9315,546.8124,226.7416,556.8536,225.9513,566.8948,226.1053,576.936,226.3386,586.9772,226.4162,597.0184,225.9961,607.0595,226.2872,617.1007,225.4276,627.1419,226,637.1831,226.0876,637.2194,226.0224,637.6066,225.844,637.9469,225.7494,638.322,225.2654,638.5357,225.2678,638.9509,225.1846,638.75,224.8349,638.906,224.5531,639.2257,224.182,639.3297,223.9405,639.7465,223.5,639.6831,223.5,639.5084,213.7778,639.3401,204.0556,639.9114,194.3333,639.0163,184.6111,639.164,174.8889,640.3321,165.1667,640.1188,155.4444,640.4176,145.7222,639.3613,136,640.0023,126.2778,640.2735,116.5556,639.2107,106.8333,639.5873,97.1111,639.8091,87.3889,640.3349,77.6667,639.6789,67.9444,640.1457,58.2222,639.1293,48.5,639.6831,48.4136,639.4746,48.2107,639.6918,47.7014,639.1694,47.5043,639.4005,47.1121,639.161,46.7322,638.9509,46.6497,638.9167,46.4768,638.5522,46.5806,638.3023,46.2007,637.852,46.3287,637.6122,46,637.1831,45.4473,637.1831,46.6174,627.1419,46.4843,617.1007,46.245,607.0595,46.0472,597.0184,46.7266,586.9772,46.6136,576.936,46.1693,566.8948,46.2682,556.8536,45.8697,546.8124,46.7165,536.7712,46,526.73,46.0477,526.7498,46.1996,526.3985,46.1055,525.9453,46.3145,525.6176,46.7492,525.3835,46.7322,524.9622,46.7871,525.0946,47.0803,524.8026,47.3982,524.5701,47.765,524.4555,48.0589,524.1651,48.5,524.23" style="stroke:#78A8D8;stroke-width:0.5;"/><text fill="#000000" font-family="Comic Sans MS" font-size="12" font-style="italic" lengthAdjust="spacing" textLength="85" x="93.5" y="545.3687">&#171;component&#187;</text><text fill="#000000" font-family="Comic Sans MS" font-size="16" font-weight="bold" lengthAdjust="spacing" textLength="53" x="77" y="563.0503">Remix</text><text fill="#000000" font-family="Comic Sans MS" font-size="16" font-weight="bold" lengthAdjust="spacing" textLength="6" x="130" y="563.0503">&#160;</text><text fill="#000000" font-family="Comic Sans MS" font-size="16" font-weight="bold" lengthAdjust="spacing" textLength="59" x="136" y="563.0503">Server</text><text fill="#000000" font-family="Comic Sans MS" font-size="12" font-style="italic" lengthAdjust="spacing" textLength="46" x="113" y="577.9624">[Remix]</text><text fill="#000000" font-family="Comic Sans MS" font-size="14" lengthAdjust="spacing" textLength="4" x="134" y="593.7876">&#160;</text><text fill="#000000" font-family="Comic Sans MS" font-size="14" lengthAdjust="spacing" textLength="58" x="56" y="610.0845">Routing,</text><text fill="#000000" font-family="Comic Sans MS" font-size="14" lengthAdjust="spacing" textLength="4" x="114" y="610.0845">&#160;</text><text fill="#000000" font-family="Comic Sans MS" font-size="14" lengthAdjust="spacing" textLength="68" x="118" y="610.0845">hydration,</text><text fill="#000000" font-family="Comic Sans MS" font-size="14" lengthAdjust="spacing" textLength="4" x="186" y="610.0845">&#160;</text><text fill="#000000" font-family="Comic Sans MS" font-size="14" lengthAdjust="spacing" textLength="26" x="190" y="610.0845">and</text><text fill="#000000" font-family="Comic Sans MS" font-size="14" lengthAdjust="spacing" textLength="53" x="81" y="626.3814">runtime</text><text fill="#000000" font-family="Comic Sans MS" font-size="14" lengthAdjust="spacing" textLength="4" x="134" y="626.3814">&#160;</text><text fill="#000000" font-family="Comic Sans MS" font-size="14" lengthAdjust="spacing" textLength="53" x="138" y="626.3814">adapter</text></g><!--entity remix_route--><g id="elem_remix_route"><polygon fill="#85BBF0" points="26,769.54,26,769.7502,36.1905,769.1257,46.381,769.7333,56.5714,769.9397,66.7619,768.8266,76.9524,769.4623,87.1429,769.1135,97.3333,769.1565,107.5238,769.4718,117.7143,768.8486,127.9048,770.0936,138.0952,768.9097,148.2857,769.3422,158.4762,769.9719,168.6667,769.4542,178.8571,769.6082,189.0476,769.5081,199.2381,769.7185,209.4286,769.7791,219.619,770.1257,229.8095,770.2111,240,769.54,240.0866,769.7492,240.386,769.7649,240.7662,769.9757,241.1502,770.1956,241.3222,769.9037,241.7678,770.2722,241.9767,770.3588,241.8229,770.588,242.2251,771.0474,242.0547,771.2697,242.3325,771.6777,242.5,772.04,243.2416,772.04,242.4513,781.79,242.6053,791.54,242.8386,801.29,242.9162,811.04,242.4961,820.79,242.7872,830.54,241.9276,840.29,242.7844,850.04,243.0482,859.79,242.9445,869.54,243.113,879.29,242.0169,889.04,242.5,898.79,242.2992,898.7068,242.1622,899.0643,242.189,899.4896,242.0001,899.8256,242.1241,900.2911,241.7678,900.5578,241.7455,900.504,241.3705,900.5986,241.0898,900.921,240.622,900.7917,240.2873,900.9837,240,901.29,240,901.939,229.8095,901.7257,219.619,902.0245,209.4286,900.9682,199.2381,901.6092,189.0476,901.8804,178.8571,900.8176,168.6667,901.1941,158.4762,901.416,148.2857,901.9418,138.0952,901.2858,127.9048,901.7526,117.7143,900.7362,107.5238,900.6127,97.3333,901.7936,87.1429,900.5731,76.9524,901.799,66.7619,901.4966,56.5714,901.0221,46.381,900.9362,36.1905,901.7488,26,901.29,25.9618,901.1978,25.7219,901.3258,25.2224,900.8269,25.0181,901.0408,24.6476,900.8534,24.2322,900.5578,24.3077,900.589,24.1003,900.2102,24.1631,899.9433,23.9819,899.5754,23.6986,899.1651,23.5,898.79,23.7682,898.79,23.3697,889.04,24.2165,879.29,23.6549,869.54,23.6726,859.79,22.8916,850.04,23.0948,840.29,24.0307,830.54,23.9298,820.79,23.4571,811.04,23.1778,801.29,23.2811,791.54,22.8138,781.79,23.5,772.04,23.6277,772.0929,23.8742,771.7808,23.955,771.4,24.1534,771.068,24.0437,770.6083,24.2322,770.2722,24.2434,770.2991,24.5363,770.0064,24.9756,770.0668,25.3244,769.9089,25.7169,769.8566,26,769.54" style="stroke:#78A8D8;stroke-width:0.5;"/><text fill="#000000" font-family="Comic Sans MS" font-size="12" font-style="italic" lengthAdjust="spacing" textLength="85" x="90.5" y="790.6787">&#171;component&#187;</text><text fill="#000000" font-family="Comic Sans MS" font-size="16" font-weight="bold" lengthAdjust="spacing" textLength="53" x="77" y="808.3603">Remix</text><text fill="#000000" font-family="Comic Sans MS" font-size="16" font-weight="bold" lengthAdjust="spacing" textLength="6" x="130" y="808.3603">&#160;</text><text fill="#000000" font-family="Comic Sans MS" font-size="16" font-weight="bold" lengthAdjust="spacing" textLength="53" x="136" y="808.3603">Route</text><text fill="#000000" font-family="Comic Sans MS" font-size="12" font-style="italic" lengthAdjust="spacing" textLength="46" x="110" y="823.2724">[Remix]</text><text fill="#000000" font-family="Comic Sans MS" font-size="14" lengthAdjust="spacing" textLength="4" x="131" y="839.0976">&#160;</text><text fill="#000000" font-family="Comic Sans MS" font-size="14" lengthAdjust="spacing" textLength="32" x="37" y="855.3945">Data</text><text fill="#000000" font-family="Comic Sans MS" font-size="14" lengthAdjust="spacing" textLength="4" x="69" y="855.3945">&#160;</text><text fill="#000000" font-family="Comic Sans MS" font-size="14" lengthAdjust="spacing" textLength="60" x="73" y="855.3945">fetching,</text><text fill="#000000" font-family="Comic Sans MS" font-size="14" lengthAdjust="spacing" textLength="4" x="133" y="855.3945">&#160;</text><text fill="#000000" font-family="Comic Sans MS" font-size="14" lengthAdjust="spacing" textLength="92" x="137" y="855.3945">manipulation,</text><text fill="#000000" font-family="Comic Sans MS" font-size="14" lengthAdjust="spacing" textLength="30" x="33.5" y="871.6914">data</text><text fill="#000000" font-family="Comic Sans MS" font-size="14" lengthAdjust="spacing" textLength="4" x="63.5" y="871.6914">&#160;</text><text fill="#000000" font-family="Comic Sans MS" font-size="14" lengthAdjust="spacing" textLength="55" x="67.5" y="871.6914">binding,</text><text fill="#000000" font-family="Comic Sans MS" font-size="14" lengthAdjust="spacing" textLength="4" x="122.5" y="871.6914">&#160;</text><text fill="#000000" font-family="Comic Sans MS" font-size="14" lengthAdjust="spacing" textLength="26" x="126.5" y="871.6914">and</text><text fill="#000000" font-family="Comic Sans MS" font-size="14" lengthAdjust="spacing" textLength="4" x="152.5" y="871.6914">&#160;</text><text fill="#000000" font-family="Comic Sans MS" font-size="14" lengthAdjust="spacing" textLength="43" x="156.5" y="871.6914">server</text><text fill="#000000" font-family="Comic Sans MS" font-size="14" lengthAdjust="spacing" textLength="4" x="199.5" y="871.6914">&#160;</text><text fill="#000000" font-family="Comic Sans MS" font-size="14" lengthAdjust="spacing" textLength="29" x="203.5" y="871.6914">side</text><text fill="#000000" font-family="Comic Sans MS" font-size="14" lengthAdjust="spacing" textLength="64" x="101" y="887.9882">validation</text></g><!--entity orm--><g id="elem_orm"><polygon fill="#85BBF0" points="34,986.14,34,986.3502,43.9,985.7257,53.8,986.3333,63.7,986.5397,73.6,985.4266,83.5,986.0623,93.4,985.7135,103.3,985.7565,113.2,986.0718,123.1,985.4486,133,986.6936,142.9,985.5097,152.8,985.9422,162.7,986.5719,172.6,986.0542,182.5,986.2082,192.4,986.1081,202.3,986.3185,212.2,986.3791,222.1,986.7257,232,986.14,232.0856,986.3467,232.4402,986.4956,232.7396,986.5113,233.1198,986.7221,233.5038,986.942,233.7678,986.8722,233.5457,986.7802,234.1232,987.3123,233.9693,987.5415,234.3715,988.001,234.2011,988.2233,234.5,988.64,234.4315,988.64,235.2416,998.6812,234.4513,1008.7224,234.6053,1018.7636,234.8386,1028.8048,234.9162,1038.846,234.4961,1048.8872,234.7872,1058.9284,233.9276,1068.9695,234.7844,1079.0107,235.0482,1089.0519,234.5,1099.0931,234.6369,1099.1498,234.5423,1099.5249,234.0583,1099.7386,233.8598,1100.0706,233.7228,1100.4281,233.7678,1100.8609,233.7603,1100.8428,233.3891,1100.9468,233.1476,1101.3636,232.6848,1101.2464,232.3098,1101.341,232,1101.5931,232,1101.8214,222.1,1100.9263,212.2,1101.074,202.3,1102.2421,192.4,1102.0288,182.5,1102.3276,172.6,1101.2713,162.7,1101.9123,152.8,1102.1835,142.9,1101.1207,133,1101.4973,123.1,1101.7191,113.2,1102.2449,103.3,1101.5889,93.4,1102.0557,83.5,1101.0393,73.6,1100.9159,63.7,1102.0967,53.8,1100.8762,43.9,1102.1021,34,1101.5931,34.0264,1101.6568,33.6123,1101.3642,33.2478,1101.1913,32.9979,1101.2951,32.5476,1100.9152,32.2322,1100.8609,32.4145,1100.9364,31.9156,1100.4368,32.1295,1100.2325,31.942,1099.862,31.7219,1099.4779,31.5,1099.0931,31.5472,1099.0931,32.2266,1089.0519,32.1136,1079.0107,31.6693,1068.9695,31.7682,1058.9284,31.3697,1048.8872,32.2165,1038.846,31.6549,1028.8048,31.6726,1018.7636,30.8916,1008.7224,31.0948,998.6812,31.5,988.64,31.6634,988.7077,31.7788,988.3413,31.7797,987.9274,31.8401,987.5382,32.0184,987.1979,32.2322,986.8722,32.1447,986.6609,32.6387,986.8535,33.0337,986.8071,33.36,986.595,33.7351,986.5005,34,986.14" style="stroke:#78A8D8;stroke-width:0.5;"/><text fill="#000000" font-family="Comic Sans MS" font-size="12" font-style="italic" lengthAdjust="spacing" textLength="85" x="90.5" y="1007.2787">&#171;component&#187;</text><text fill="#000000" font-family="Comic Sans MS" font-size="16" font-weight="bold" lengthAdjust="spacing" textLength="42" x="112" y="1024.9603">ORM</text><text fill="#000000" font-family="Comic Sans MS" font-size="12" font-style="italic" lengthAdjust="spacing" textLength="47" x="70" y="1039.8724">[Prisma</text><text fill="#000000" font-family="Comic Sans MS" font-size="12" font-style="italic" lengthAdjust="spacing" textLength="4" x="117" y="1039.8724">&#160;</text><text fill="#000000" font-family="Comic Sans MS" font-size="12" font-style="italic" lengthAdjust="spacing" textLength="4" x="121" y="1039.8724">/</text><text fill="#000000" font-family="Comic Sans MS" font-size="12" font-style="italic" lengthAdjust="spacing" textLength="4" x="125" y="1039.8724">&#160;</text><text fill="#000000" font-family="Comic Sans MS" font-size="12" font-style="italic" lengthAdjust="spacing" textLength="38" x="129" y="1039.8724">Drizzle</text><text fill="#000000" font-family="Comic Sans MS" font-size="12" font-style="italic" lengthAdjust="spacing" textLength="4" x="167" y="1039.8724">&#160;</text><text fill="#000000" font-family="Comic Sans MS" font-size="12" font-style="italic" lengthAdjust="spacing" textLength="4" x="171" y="1039.8724">/</text><text fill="#000000" font-family="Comic Sans MS" font-size="12" font-style="italic" lengthAdjust="spacing" textLength="4" x="175" y="1039.8724">&#160;</text><text fill="#000000" font-family="Comic Sans MS" font-size="12" font-style="italic" lengthAdjust="spacing" textLength="17" x="179" y="1039.8724">...]</text><text fill="#000000" font-family="Comic Sans MS" font-size="14" lengthAdjust="spacing" textLength="4" x="131" y="1055.6976">&#160;</text><text fill="#000000" font-family="Comic Sans MS" font-size="14" lengthAdjust="spacing" textLength="66" x="41.5" y="1071.9945">Database</text><text fill="#000000" font-family="Comic Sans MS" font-size="14" lengthAdjust="spacing" textLength="4" x="107.5" y="1071.9945">&#160;</text><text fill="#000000" font-family="Comic Sans MS" font-size="14" lengthAdjust="spacing" textLength="49" x="111.5" y="1071.9945">access</text><text fill="#000000" font-family="Comic Sans MS" font-size="14" lengthAdjust="spacing" textLength="4" x="160.5" y="1071.9945">&#160;</text><text fill="#000000" font-family="Comic Sans MS" font-size="14" lengthAdjust="spacing" textLength="26" x="164.5" y="1071.9945">and</text><text fill="#000000" font-family="Comic Sans MS" font-size="14" lengthAdjust="spacing" textLength="4" x="190.5" y="1071.9945">&#160;</text><text fill="#000000" font-family="Comic Sans MS" font-size="14" lengthAdjust="spacing" textLength="30" x="194.5" y="1071.9945">data</text><text fill="#000000" font-family="Comic Sans MS" font-size="14" lengthAdjust="spacing" textLength="88" x="89" y="1088.2914">manipulation</text></g><!--link ui to remix_client--><g id="link_ui_remix_client"><path d="M141,191.87 L141.2802,191.87 L140.4476,201.3171 L141.2577,210.7643 L141.5329,220.2114 L140.0488,229.6586 L140.8964,239.1057 L140.4313,248.5529 L141,258 " fill="none" style="stroke:#666666;stroke-width:1.0;"/><polygon fill="#666666" points="141,266,141.0656,266.0246,141.4707,264.3515,142.2603,262.8226,142.9247,261.2468,143.1773,259.5165,144,258,144,257.9741,142.8,257.8578,141.6,257.8722,140.4,257.9773,139.2,257.7695,138,258,138.1728,258.0648,138.4033,259.5262,139.1383,261.1769,139.9348,262.8506,140.3732,264.39,141,266" style="stroke:#666666;stroke-width:1.0;"/><text fill="#666666" font-family="Comic Sans MS" font-size="12" font-weight="bold" lengthAdjust="spacing" textLength="34" x="142" y="233.5887">uses</text></g><!--link remix_server to remix_route--><g id="link_remix_server_remix_route"><path d="M135.32,640.02 L135.6002,640.0233 L134.6473,650.1076 L135.337,660.2115 L135.4919,670.309 L133.8875,680.3855 L134.6147,690.4898 L134.0294,700.5785 L133.9664,710.6734 L134.2664,720.7726 L133.3152,730.8569 L134.8548,740.9709 L133.156,751.0463 L133.876,761.1506 " fill="none" style="stroke:#666666;stroke-width:1.0;"/><polygon fill="#666666" points="133.78,769.15,133.8453,769.1754,134.2704,767.5073,135.0784,765.988,135.7616,764.4202,136.035,762.6931,136.8758,761.1866,136.8754,761.1607,135.6741,761.03,134.4744,761.0299,133.2757,761.1207,132.0733,760.8985,130.8762,761.1146,131.0497,761.1773,131.2594,762.6503,131.9757,764.3063,132.7539,765.9848,133.1723,767.5332,133.78,769.15" style="stroke:#666666;stroke-width:1.0;"/><text fill="#666666" font-family="Comic Sans MS" font-size="12" font-weight="bold" lengthAdjust="spacing" textLength="34" x="136" y="681.8187">uses</text></g><!--link remix_route to orm--><g id="link_remix_route_orm"><path d="M133,901.73 L133.2802,901.73 L132.4476,911.26 L133.2577,920.79 L133.5329,930.32 L132.0488,939.85 L132.8964,949.38 L132.4313,958.91 L132.4887,968.44 L133,977.97 " fill="none" style="stroke:#666666;stroke-width:1.0;"/><polygon fill="#666666" points="133,985.97,133.0656,985.9946,133.4707,984.3215,134.2603,982.7926,134.9247,981.2168,135.1773,979.4865,136,977.97,136,977.9441,134.8,977.8278,133.6,977.8422,132.4,977.9473,131.2,977.7395,130,977.97,130.1728,978.0348,130.4033,979.4962,131.1383,981.1469,131.9348,982.8206,132.3732,984.36,133,985.97" style="stroke:#666666;stroke-width:1.0;"/><text fill="#666666" font-family="Comic Sans MS" font-size="12" font-weight="bold" lengthAdjust="spacing" textLength="34" x="134" y="953.2787">uses</text></g><!--link remix_client to remix_server--><g id="link_remix_client_remix_server"><path d="M139.86,384.44 L140.1402,384.4455 L139.109,394.5485 L139.7204,404.6838 L139.7969,414.8085 L138.1145,424.8987 L138.7632,435.0347 L138.0997,445.1449 L137.9583,455.2654 L138.1801,465.393 L137.1507,475.4961 L138.6117,485.648 L136.8348,495.7364 L137.2128,505.867 L137.2778,515.9916 " fill="none" style="stroke:#666666;stroke-width:1.0;"/><polygon fill="#666666" points="137.12,523.99,137.1851,524.0159,137.6231,522.3511,138.4427,520.8381,139.1381,519.2757,139.4248,517.5507,140.2772,516.0507,140.2767,516.0248,139.0746,515.8849,137.8751,515.8756,136.6774,515.957,135.4736,515.7256,134.2784,515.9324,134.4524,515.9938,134.6486,517.474,135.3528,519.1335,136.1191,520.8148,136.5247,522.369,137.12,523.99" style="stroke:#666666;stroke-width:1.0;"/><text fill="#666666" font-family="Comic Sans MS" font-size="12" font-weight="bold" lengthAdjust="spacing" textLength="35" x="140" y="444.3687">HTTP</text></g><!--link remix_route to shared_code--><g id="link_remix_route_shared_code"><path d="M242.89,835.41 L242.89,835.6902 L251.965,834.8576 L261.04,835.6677 L270.115,835.9429 L279.19,834.4588 L288.265,835.41 L288.265,835.3755 L291.3856,835.2204 L294.5061,835.2396 L297.6267,835.3797 L300.7473,835.1027 L303.8678,835.41 L303.8678,835.6561 L304.0183,835.1299 L304.1688,835.3221 L304.3194,835.602 L304.4699,835.3719 L304.6204,835.41 L304.6204,835.4403 L303.0935,835.3958 L301.5666,835.4893 L300.0396,835.5163 L298.5127,835.6703 L296.9858,835.41 " fill="none" style="stroke:#666666;stroke-width:1.0;"/><polygon fill="#666666" points="304.9858,835.41,305.0104,835.4756,303.3373,834.6807,301.8084,834.2703,300.2326,833.7347,298.5023,832.7873,296.9858,832.41,296.9599,832.41,296.8437,833.61,296.858,834.81,296.9631,836.01,296.7554,837.21,296.9858,838.41,297.0506,838.5828,298.5121,837.6133,300.1627,837.1483,301.8364,836.7448,303.3758,835.9832,304.9858,835.41" style="stroke:#666666;stroke-width:1.0;"/><text fill="#666666" font-family="Comic Sans MS" font-size="12" font-weight="bold" lengthAdjust="spacing" textLength="34" x="260.57" y="829.5487">uses</text></g><!--link spa to shared_code--><g id="link_spa_shared_code"><path d="M282.0516,279.1839 L282.1449,279.1891 L281.9428,280.5199 L282.2875,281.8811 L282.4541,283.2324 L282.0352,284.551 L282.4268,285.9149 L282.3923,285.9129 L282.3908,288.6555 L282.5632,291.4077 L282.8565,294.1667 L282.7333,296.9025 L283.1934,299.6708 L283.9304,299.7119 L282.8966,309.3547 L284.0147,319.1176 L285.3953,328.895 L285.2484,338.5873 L285.9958,348.3294 L286.4472,358.0551 L286.4047,358.0527 L287.2274,367.8025 L287.8506,377.5411 L288.8545,387.3009 L289.5107,397.0414 L290.0641,406.7761 L290.0413,416.4788 L290.862,426.2284 L291.7223,435.9802 L290.3698,445.6087 L292.7757,455.4467 L292.0202,465.1085 L293.6681,474.9042 L293.5,484.5987 L292.841,484.562 L293.9513,494.3275 L295.5723,504.1214 L295.0627,513.7965 L295.8103,523.5418 L296.6634,533.2929 L297.3092,543.0324 L297.2924,552.7351 L298.2225,562.4905 L297.6206,572.1605 L299.3038,581.9579 L300.1975,591.7113 L300.602,601.4374 L300.5528,611.1382 L301.3689,611.1837 L300.452,620.8322 L300.7692,630.5495 L301.3525,640.2816 L302.6436,650.0532 L303.0027,659.7728 L303.8066,669.5172 L304.109,669.5341 L304.0313,674.9351 L304.2588,680.3532 L304.8146,685.7896 L304.7196,691.1897 L305.3177,696.6285 L305.0874,696.6156 L305.6784,697.9485 L305.6564,699.2472 L305.8617,700.5586 L305.4656,701.8365 L305.6811,703.1484 L305.8228,703.1563 L305.979,703.8068 L305.5433,704.4242 L305.7462,705.0773 L305.8806,705.7265 L305.8605,706.3671 L306.1497,706.3832 L305.7874,705.0892 L305.9234,703.823 L305.4011,702.5201 L305.2751,701.2393 L305.5044,699.9783 " fill="none" style="stroke:#666666;stroke-width:1.0;"/><polygon fill="#666666" points="305.9496,707.9659,306.0165,707.9868,306.3279,706.2938,307.0312,704.7233,307.6069,703.1129,307.7628,701.3713,308.4998,699.8113,308.4983,699.7855,307.2937,699.7362,306.0964,699.8173,304.9041,699.989,303.6944,699.8484,302.5091,700.1452,302.678,700.2196,303.0049,701.6248,303.825,703.247,304.7052,704.8956,305.2354,706.3902,305.9496,707.9659" style="stroke:#666666;stroke-width:1.0;"/><text fill="#666666" font-family="Comic Sans MS" font-size="12" font-weight="bold" lengthAdjust="spacing" textLength="34" x="293" y="444.3687">uses</text></g><text fill="#FF0000" font-family="Comic Sans MS" font-size="10" lengthAdjust="spacing" textLength="33" x="377" y="1131.8722">Sketch</text><!--SRC=[fLHDR-8m4BtdLxXM3o0XUkbngGGfKgljgeYaNNKlaR6dO17RaUEqfQlzxpjs0laGrHwMa-VhlPatGowavdabW7oBhw_Ywvleek_8OgCTanhikP0gZ0RjRg8eMQPPydsPndTPahuyB4UNcsriScDdz7qd7T09kNmrne7zoQoMUZkZoHuStxM153xSZD9nz31_UNnAitdI88x6KRGmbHRC7aPbmIQ49giv5j8rCEx85PdhRPKpYw_d2kYO_8u8_axzZIg9oK_thQSyLVl7lIfoKDvDC2atMya9quBmNAAJb19dVcEv5Cn9ex73Fhe59J-oEZd0eadYO7hq0OCrbSFv9qI3UpTsJxXHgjAI1_30kpi8swLQGnv6611L9PIOyQUhpevP41at0hnAmS9EXTUVfeS24cvbuSvAX5MDCH3hQwN_NpjqiwoD8-0jUiXpMu6kNqOCg7nP7xQhmeRnFMY19OlwvQkJmgBiP86tTcRyMjeIx1lOqmwJODAZ7Hx7xPrsD0dZsaexgO0mmGgyvIzknEyUJl0U2theOVPN_xS878ffMQ3SDKsOUIEr235FMhVxJusDLOZzkFxXALPMbehX_cwj_FpC0L_JwVH8lc4bpi0vb6LW29pTDZeNsPUiFs1pcltK9bYtqnvlct2yxC4oxj9qXQa-CLltiVhttc1wmF2PE1Vz2m00]--></g></svg>
