<?xml version="1.0" encoding="us-ascii" standalone="no"?><svg xmlns="http://www.w3.org/2000/svg" xmlns:xlink="http://www.w3.org/1999/xlink" contentStyleType="text/css" height="881px" preserveAspectRatio="none" style="width:646px;height:881px;background:#FFFFFF;" version="1.1" viewBox="0 0 646 881" width="646px" zoomAndPan="magnify"><defs/><g><!--cluster spa--><g id="cluster_spa"><polygon fill="none" points="9.5,7,9.5,7.2102,19.4565,6.5857,29.413,7.1933,39.3696,7.3997,49.3261,6.2866,59.2826,6.9223,69.2391,6.5735,79.1957,6.6165,89.1522,6.9318,99.1087,6.3086,109.0652,7.5536,119.0217,6.3697,128.9783,6.8022,138.9348,7.4319,148.8913,6.9142,158.8478,7.0682,168.8043,6.9681,178.7609,7.1785,188.7174,7.2391,198.6739,7.5857,208.6304,7.6711,218.587,7.6793,228.5435,7.2546,238.5,7,238.5591,7.1428,238.9431,7.3627,239.1151,7.0708,239.6472,7.6483,239.8764,7.4945,240.2678,7.7322,240.4322,7.8003,240.2618,8.0226,240.5396,8.4306,240.9355,8.8875,240.8385,9.1402,241,9.5,241.1053,9.5,241.3386,19.4596,241.4162,29.4191,240.9961,39.3787,241.2872,49.3382,240.4276,59.2978,241.2844,69.2573,241.5482,79.2169,241.4445,89.1764,241.613,99.136,240.5169,109.0956,240.3478,119.0551,240.3786,129.0147,240.9411,138.9742,240.8035,148.9338,241.6814,158.8933,240.8253,168.8529,240.6569,178.8124,241.2283,188.772,240.3332,198.7316,240.4809,208.6911,241.649,218.6507,241.4357,228.6102,241.7345,238.5698,240.6782,248.5293,241.3192,258.4889,241.5904,268.4484,240.5276,278.408,240.9041,288.3676,241.126,298.3271,241.6518,308.2867,240.9958,318.2462,241.4626,328.2058,240.4462,338.1653,240.3227,348.1249,241.5036,358.0844,240.2831,368.044,241.509,378.0036,241.2066,387.9631,240.7321,397.9227,240.6462,407.8822,241.4588,417.8418,240.7007,427.8013,241.5919,437.7609,240.4473,447.7204,241,457.68,241.1901,457.7588,241.0027,458.0953,240.7825,458.4184,240.5752,458.7467,240.638,459.1869,240.2678,459.4478,240.346,459.6367,239.9358,459.6463,239.5949,459.8233,239.1905,459.847,238.9449,460.2542,238.5,460.18,238.5,460.3349,228.5435,460.3526,218.587,459.5716,208.6304,459.7748,198.6739,460.7107,188.7174,460.6098,178.7609,460.1371,168.8043,459.8578,158.8478,459.9611,148.8913,459.4938,138.9348,460.5947,128.9783,460.9196,119.0217,460.7064,109.0652,460.8749,99.1087,460.0433,89.1522,460.2672,79.1957,459.7924,69.2391,460.464,59.2826,460.4268,49.3261,460.7324,39.3696,459.9503,29.413,460.0456,19.4565,460.6235,9.5,460.18,9.5724,460.3547,9.0811,459.8757,8.7682,459.8274,8.4584,459.7866,8.0079,459.4061,7.7322,459.4478,7.8411,459.4928,7.6652,459.1271,7.4083,458.7278,7.3367,458.4053,7.3708,458.1265,7,457.68,6.6871,457.68,7.315,447.7204,7.2856,437.7609,7.1158,427.8013,7.1409,417.8418,7.1135,407.8822,6.3758,397.9227,6.5992,387.9631,6.5385,378.0036,7.0638,368.044,7.0881,358.0844,7.1617,348.1249,6.709,338.1653,6.9325,328.2058,6.8798,318.2462,7.5769,308.2867,7.4266,298.3271,6.5145,288.3676,6.9271,278.408,6.4228,268.4484,7.2884,258.4889,7.6085,248.5293,7.5446,238.5698,6.5644,228.6102,7.464,218.6507,6.2572,208.6911,7.2002,198.7316,6.7007,188.772,7.0967,178.8124,7.2403,168.8529,7.4721,158.8933,6.2801,148.9338,7.4755,138.9742,7.1782,129.0147,7.3553,119.0551,7.7478,109.0956,7.0055,99.136,7.1753,89.1764,7.2134,79.2169,7.1972,69.2573,6.9992,59.2978,7.7107,49.3382,6.3903,39.3787,7.5653,29.4191,6.376,19.4596,7,9.5,6.8336,9.4311,7.1588,9.1516,7.3016,8.7965,7.2876,8.3765,7.7132,8.1386,7.7322,7.7322,7.7461,7.7658,8.1785,7.8096,8.5244,7.6448,8.7357,7.1548,9.0957,7.0239,9.5,7" style="stroke:#444444;stroke-width:1.0;stroke-dasharray:7.0,7.0;"/><text fill="#444444" font-family="Comic Sans MS" font-size="16" font-weight="bold" lengthAdjust="spacing" textLength="35" x="106.5" y="33.8516">SPA</text><text fill="#444444" font-family="Comic Sans MS" font-size="12" font-weight="bold" lengthAdjust="spacing" textLength="156" x="46" y="48.7637">[React / Angular / Vue]</text></g><!--cluster backend--><g id="cluster_backend"><polygon fill="none" points="396.5,244.45,396.5,244.6602,406.5417,244.0357,416.5833,244.6433,426.625,244.8497,436.6667,243.7366,446.7083,244.3723,456.75,244.0235,466.7917,244.0665,476.8333,244.3818,486.875,243.7586,496.9167,245.0036,506.9583,243.8197,517,244.2522,527.0417,244.8819,537.0833,244.3642,547.125,244.5182,557.1667,244.4181,567.2083,244.6285,577.25,244.6891,587.2917,245.0357,597.3333,245.1211,607.375,245.1293,617.4167,244.7046,627.4583,244.9136,637.5,244.45,637.5896,244.6663,637.7616,244.3744,638.2937,244.9518,638.5228,244.798,638.9823,245.2002,639.2678,245.1822,639.1153,245.1191,639.3931,245.527,639.789,245.9839,639.6921,246.2367,639.886,246.6099,640,246.95,640.3386,246.95,640.4162,256.9108,639.9961,266.8716,640.2872,276.8325,639.4276,286.7933,640.2844,296.7541,640.5482,306.7149,640.4445,316.6757,640.613,326.6366,639.5169,336.5974,639.3478,346.5582,639.3786,356.519,639.9411,366.4798,639.8035,376.4407,640.6814,386.4015,639.8253,396.3623,639.6569,406.3231,640.2283,416.2839,639.3332,426.2448,639.4809,436.2056,640.649,446.1664,640.4357,456.1272,640.7345,466.088,639.6782,476.0489,640.3192,486.0097,640.5904,495.9705,639.5276,505.9313,639.9041,515.8921,640.126,525.853,640.6518,535.8138,639.9958,545.7746,640.4626,555.7354,639.4462,565.6962,639.3227,575.657,640.5036,585.6179,639.2831,595.5787,640.509,605.5395,640.2066,615.5003,639.7321,625.4611,639.6462,635.422,640.4588,645.3828,639.7007,655.3436,640.5919,665.3044,639.4473,675.2652,640.6174,685.2261,640.4843,695.1869,640.245,705.1477,640.0472,715.1085,640.7266,725.0693,640.6136,735.0302,640.1693,744.991,640.2682,754.9518,639.8697,764.9126,640.7165,774.8734,640.1549,784.8343,640.1726,794.7951,639.3916,804.7559,639.5948,814.7167,640.5307,824.6775,640.4298,834.6384,639.9571,844.5992,640,854.56,639.9008,854.5189,639.7861,854.8856,639.4958,855.1796,639.6884,855.6736,639.642,856.0686,639.2678,856.3278,639.3349,856.4899,639.0029,856.6882,638.5432,856.5786,638.2182,856.794,637.8041,856.7942,637.5,857.06,637.5,857.344,627.4583,857.3068,617.4167,857.6124,607.375,856.8303,597.3333,856.9256,587.2917,857.5035,577.25,857.6273,567.2083,856.5475,557.1667,856.8661,547.125,857.2093,537.0833,856.4492,527.0417,857.4134,517,857.318,506.9583,856.9592,496.9167,857.2022,486.875,857.7887,476.8333,856.7471,466.7917,857.375,456.75,857.3456,446.7083,857.1758,436.6667,857.2009,426.625,857.1735,416.5833,856.4358,406.5417,856.6592,396.5,857.06,396.4411,856.9179,396.1546,856.9332,395.8041,856.7942,395.46,856.6705,395.0487,856.3846,394.7322,856.3278,394.7114,856.3192,394.5488,855.9589,394.617,855.6942,394.4243,855.3215,393.9969,854.8516,394,854.56,393.9271,854.56,393.4228,844.5992,394.2884,834.6384,394.6085,824.6775,394.5446,814.7167,393.5644,804.7559,394.464,794.7951,393.2572,784.8343,394.2002,774.8734,393.7007,764.9126,394.0967,754.9518,394.2403,744.991,394.4721,735.0302,393.2801,725.0693,394.4755,715.1085,394.1782,705.1477,394.3553,695.1869,394.7478,685.2261,394.0055,675.2652,394.1753,665.3044,394.2134,655.3436,394.1972,645.3828,393.9992,635.422,394.7107,625.4611,393.3903,615.5003,394.5653,605.5395,393.376,595.5787,393.4597,585.6179,394.04,575.657,394.0283,565.6962,393.5072,555.7354,394.4137,545.7746,394.1089,535.8138,394.7267,525.853,394.6671,515.8921,393.5517,505.9313,393.6021,495.9705,393.8708,486.0097,394.3555,476.0489,394.403,466.088,394.3012,456.1272,393.658,446.1664,394.6364,436.2056,394.6338,426.2448,393.9527,416.2839,393.7609,406.3231,393.5986,396.3623,393.7854,386.4015,394.1374,376.4407,393.9316,366.4798,393.5822,356.519,394.4874,346.5582,393.5411,336.5974,394.5024,326.6366,394.4272,316.6757,394.3719,306.7149,394.6925,296.7541,393.7541,286.7933,393.6994,276.8325,394.5189,266.8716,393.4031,256.9108,394,246.95,393.9279,246.9202,394.182,246.6112,394.314,246.2517,394.329,245.8436,394.5726,245.5303,394.7322,245.1822,394.8272,245.4115,395.1685,245.2355,395.3633,244.7057,395.8029,244.7671,396.0809,244.4382,396.5,244.45" style="stroke:#444444;stroke-width:1.0;stroke-dasharray:7.0,7.0;"/><text fill="#444444" font-family="Comic Sans MS" font-size="16" font-weight="bold" lengthAdjust="spacing" textLength="76" x="479" y="271.3016">Backend</text><text fill="#444444" font-family="Comic Sans MS" font-size="12" font-weight="bold" lengthAdjust="spacing" textLength="93" x="470.5" y="286.2137">[Spring Boot]</text></g><!--entity ui--><g id="elem_ui"><polygon fill="#85BBF0" points="34.5,68,34.5,68.2102,44.4444,67.5857,54.3889,68.1933,64.3333,68.3997,74.2778,67.2866,84.2222,67.9223,94.1667,67.5735,104.1111,67.6165,114.0556,67.9318,124,67.3086,133.9444,68.5536,143.8889,67.3697,153.8333,67.8022,163.7778,68.4319,173.7222,67.9142,183.6667,68.0682,193.6111,67.9681,203.5556,68.1785,213.5,68,213.5305,68.0736,213.9283,68.3268,214.2927,68.4996,214.6473,68.6485,214.9467,68.6642,215.2678,68.7322,215.4105,68.7914,215.6305,69.1754,215.3386,69.3473,215.9161,69.8794,215.7622,70.1086,216,70.5,216.5338,70.5,215.505,80.5412,215.9315,90.5824,216.7416,100.6236,215.9513,110.6648,216.1053,120.706,216.3386,130.7472,216.4162,140.7884,215.9961,150.8295,216.2872,160.8707,215.4276,170.9119,216,180.9531,216.0876,180.9894,216.0224,181.3766,215.844,181.7169,215.7494,182.092,215.2654,182.3057,215.2678,182.7209,215.1846,182.52,214.8349,182.676,214.5531,182.9957,214.182,183.0997,213.9405,183.5165,213.5,183.4531,213.5,183.2784,203.5556,183.1101,193.6111,183.6814,183.6667,182.7863,173.7222,182.934,163.7778,184.1021,153.8333,183.8888,143.8889,184.1876,133.9444,183.1313,124,183.7723,114.0556,184.0435,104.1111,182.9807,94.1667,183.3573,84.2222,183.5791,74.2778,184.1049,64.3333,183.4489,54.3889,183.9157,44.4444,182.8993,34.5,183.4531,34.4136,183.2446,34.2107,183.4618,33.7014,182.9394,33.5043,183.1705,33.1121,182.931,32.7322,182.7209,32.6497,182.6867,32.4768,182.3222,32.5806,182.0723,32.2007,181.622,32.3287,181.3822,32,180.9531,31.4473,180.9531,32.6174,170.9119,32.4843,160.8707,32.245,150.8295,32.0472,140.7884,32.7266,130.7472,32.6136,120.706,32.1693,110.6648,32.2682,100.6236,31.8697,90.5824,32.7165,80.5412,32,70.5,32.0477,70.5198,32.1996,70.1685,32.1055,69.7153,32.3145,69.3876,32.7492,69.1535,32.7322,68.7322,32.7871,68.8646,33.0803,68.5726,33.3982,68.3401,33.765,68.2255,34.0589,67.9351,34.5,68" style="stroke:#78A8D8;stroke-width:0.5;"/><text fill="#000000" font-family="Comic Sans MS" font-size="12" font-style="italic" lengthAdjust="spacing" textLength="85" x="81.5" y="89.1387">&#171;component&#187;</text><text fill="#000000" font-family="Comic Sans MS" font-size="16" font-weight="bold" lengthAdjust="spacing" textLength="18" x="56" y="106.8203">UI</text><text fill="#000000" font-family="Comic Sans MS" font-size="16" font-weight="bold" lengthAdjust="spacing" textLength="6" x="74" y="106.8203">&#160;</text><text fill="#000000" font-family="Comic Sans MS" font-size="16" font-weight="bold" lengthAdjust="spacing" textLength="112" x="80" y="106.8203">Components</text><text fill="#000000" font-family="Comic Sans MS" font-size="12" font-style="italic" lengthAdjust="spacing" textLength="41" x="53" y="121.7324">[React</text><text fill="#000000" font-family="Comic Sans MS" font-size="12" font-style="italic" lengthAdjust="spacing" textLength="4" x="94" y="121.7324">&#160;</text><text fill="#000000" font-family="Comic Sans MS" font-size="12" font-style="italic" lengthAdjust="spacing" textLength="4" x="98" y="121.7324">/</text><text fill="#000000" font-family="Comic Sans MS" font-size="12" font-style="italic" lengthAdjust="spacing" textLength="4" x="102" y="121.7324">&#160;</text><text fill="#000000" font-family="Comic Sans MS" font-size="12" font-style="italic" lengthAdjust="spacing" textLength="48" x="106" y="121.7324">Angular</text><text fill="#000000" font-family="Comic Sans MS" font-size="12" font-style="italic" lengthAdjust="spacing" textLength="4" x="154" y="121.7324">&#160;</text><text fill="#000000" font-family="Comic Sans MS" font-size="12" font-style="italic" lengthAdjust="spacing" textLength="4" x="158" y="121.7324">/</text><text fill="#000000" font-family="Comic Sans MS" font-size="12" font-style="italic" lengthAdjust="spacing" textLength="4" x="162" y="121.7324">&#160;</text><text fill="#000000" font-family="Comic Sans MS" font-size="12" font-style="italic" lengthAdjust="spacing" textLength="29" x="166" y="121.7324">Vue]</text><text fill="#000000" font-family="Comic Sans MS" font-size="14" lengthAdjust="spacing" textLength="4" x="122" y="137.5576">&#160;</text><text fill="#000000" font-family="Comic Sans MS" font-size="14" lengthAdjust="spacing" textLength="81" x="42" y="153.8545">Implements</text><text fill="#000000" font-family="Comic Sans MS" font-size="14" lengthAdjust="spacing" textLength="4" x="123" y="153.8545">&#160;</text><text fill="#000000" font-family="Comic Sans MS" font-size="14" lengthAdjust="spacing" textLength="13" x="127" y="153.8545">UI</text><text fill="#000000" font-family="Comic Sans MS" font-size="14" lengthAdjust="spacing" textLength="4" x="140" y="153.8545">&#160;</text><text fill="#000000" font-family="Comic Sans MS" font-size="14" lengthAdjust="spacing" textLength="32" x="144" y="153.8545">logic</text><text fill="#000000" font-family="Comic Sans MS" font-size="14" lengthAdjust="spacing" textLength="4" x="176" y="153.8545">&#160;</text><text fill="#000000" font-family="Comic Sans MS" font-size="14" lengthAdjust="spacing" textLength="26" x="180" y="153.8545">and</text><text fill="#000000" font-family="Comic Sans MS" font-size="14" lengthAdjust="spacing" textLength="37" x="55" y="170.1514">client</text><text fill="#000000" font-family="Comic Sans MS" font-size="14" lengthAdjust="spacing" textLength="4" x="92" y="170.1514">&#160;</text><text fill="#000000" font-family="Comic Sans MS" font-size="14" lengthAdjust="spacing" textLength="29" x="96" y="170.1514">side</text><text fill="#000000" font-family="Comic Sans MS" font-size="14" lengthAdjust="spacing" textLength="4" x="125" y="170.1514">&#160;</text><text fill="#000000" font-family="Comic Sans MS" font-size="14" lengthAdjust="spacing" textLength="64" x="129" y="170.1514">validation</text></g><!--entity client--><g id="elem_client"><polygon fill="#85BBF0" points="25.5,296.14,25.5,296.3502,35.35,295.7257,45.2,296.3333,55.05,296.5397,64.9,295.4266,74.75,296.0623,84.6,295.7135,94.45,295.7565,104.3,296.0718,114.15,295.4486,124,296.6936,133.85,295.5097,143.7,295.9422,153.55,296.5719,163.4,296.0542,173.25,296.2082,183.1,296.1081,192.95,296.3185,202.8,296.3791,212.65,296.7257,222.5,296.14,222.5856,296.3467,222.9402,296.4956,223.2396,296.5113,223.6198,296.7221,224.0038,296.942,224.2678,296.8722,224.0457,296.7802,224.6232,297.3123,224.4693,297.5415,224.8715,298.001,224.7011,298.2233,225,298.64,224.9315,298.64,225.7416,308.8576,224.9513,319.0753,225.1053,329.2929,225.3386,339.5105,225.4162,349.7282,224.9961,359.9458,225.2872,370.1634,224.4276,380.3811,225.2844,390.5987,225.5482,400.8163,225.4445,411.034,225.613,421.2516,224.5169,431.4692,225,441.6869,224.7992,441.6037,224.6622,441.9612,224.689,442.3865,224.5001,442.7225,224.6241,443.188,224.2678,443.4546,224.2455,443.4008,223.8705,443.4954,223.5898,443.8178,223.122,443.6886,222.7873,443.8806,222.5,444.1869,222.5,444.8358,212.65,444.6225,202.8,444.9214,192.95,443.8651,183.1,444.5061,173.25,444.7773,163.4,443.7145,153.55,444.091,143.7,444.3129,133.85,444.8386,124,444.1827,114.15,444.6494,104.3,443.6331,94.45,443.5096,84.6,444.6905,74.75,443.4699,64.9,444.6958,55.05,444.3935,45.2,443.919,35.35,443.8331,25.5,444.1869,25.5585,444.3282,25.1083,443.9482,24.8684,444.0763,24.3688,443.5773,24.1645,443.7912,23.7322,443.4546,23.8814,443.5164,23.6612,443.1323,23.4539,442.7536,23.5167,442.4867,23.3354,442.1187,23,441.6869,23.1693,441.6869,23.2682,431.4692,22.8697,421.2516,23.7165,411.034,23.1549,400.8163,23.1726,390.5987,22.3916,380.3811,22.5948,370.1634,23.5307,359.9458,23.4298,349.7282,22.9571,339.5105,22.6778,329.2929,22.7811,319.0753,22.3138,308.8576,23,298.64,23.1277,298.6929,23.3742,298.3808,23.455,298,23.6534,297.668,23.5437,297.2083,23.7322,296.8722,23.7434,296.8991,24.0363,296.6064,24.4756,296.6668,24.8244,296.5089,25.2169,296.4566,25.5,296.14" style="stroke:#78A8D8;stroke-width:0.5;"/><text fill="#000000" font-family="Comic Sans MS" font-size="12" font-style="italic" lengthAdjust="spacing" textLength="85" x="81.5" y="317.2787">&#171;component&#187;</text><text fill="#000000" font-family="Comic Sans MS" font-size="16" font-weight="bold" lengthAdjust="spacing" textLength="41" x="75.5" y="334.9603">Rest</text><text fill="#000000" font-family="Comic Sans MS" font-size="16" font-weight="bold" lengthAdjust="spacing" textLength="6" x="116.5" y="334.9603">&#160;</text><text fill="#000000" font-family="Comic Sans MS" font-size="16" font-weight="bold" lengthAdjust="spacing" textLength="50" x="122.5" y="334.9603">Client</text><text fill="#000000" font-family="Comic Sans MS" font-size="12" font-style="italic" lengthAdjust="spacing" textLength="37" x="33" y="349.8724">[Axios</text><text fill="#000000" font-family="Comic Sans MS" font-size="12" font-style="italic" lengthAdjust="spacing" textLength="4" x="70" y="349.8724">&#160;</text><text fill="#000000" font-family="Comic Sans MS" font-size="12" font-style="italic" lengthAdjust="spacing" textLength="4" x="74" y="349.8724">/</text><text fill="#000000" font-family="Comic Sans MS" font-size="12" font-style="italic" lengthAdjust="spacing" textLength="4" x="78" y="349.8724">&#160;</text><text fill="#000000" font-family="Comic Sans MS" font-size="12" font-style="italic" lengthAdjust="spacing" textLength="35" x="82" y="349.8724">Fetch</text><text fill="#000000" font-family="Comic Sans MS" font-size="12" font-style="italic" lengthAdjust="spacing" textLength="4" x="117" y="349.8724">&#160;</text><text fill="#000000" font-family="Comic Sans MS" font-size="12" font-style="italic" lengthAdjust="spacing" textLength="4" x="121" y="349.8724">/</text><text fill="#000000" font-family="Comic Sans MS" font-size="12" font-style="italic" lengthAdjust="spacing" textLength="4" x="125" y="349.8724">&#160;</text><text fill="#000000" font-family="Comic Sans MS" font-size="12" font-style="italic" lengthAdjust="spacing" textLength="46" x="129" y="349.8724">custom</text><text fill="#000000" font-family="Comic Sans MS" font-size="12" font-style="italic" lengthAdjust="spacing" textLength="4" x="175" y="349.8724">&#160;</text><text fill="#000000" font-family="Comic Sans MS" font-size="12" font-style="italic" lengthAdjust="spacing" textLength="36" x="179" y="349.8724">code]</text><text fill="#000000" font-family="Comic Sans MS" font-size="14" lengthAdjust="spacing" textLength="4" x="122" y="365.6976">&#160;</text><text fill="#000000" font-family="Comic Sans MS" font-size="14" lengthAdjust="spacing" textLength="81" x="53.5" y="381.9945">Implements</text><text fill="#000000" font-family="Comic Sans MS" font-size="14" lengthAdjust="spacing" textLength="4" x="134.5" y="381.9945">&#160;</text><text fill="#000000" font-family="Comic Sans MS" font-size="14" lengthAdjust="spacing" textLength="56" x="138.5" y="381.9945">network</text><text fill="#000000" font-family="Comic Sans MS" font-size="14" lengthAdjust="spacing" textLength="110" x="52" y="398.2914">communication,</text><text fill="#000000" font-family="Comic Sans MS" font-size="14" lengthAdjust="spacing" textLength="4" x="162" y="398.2914">&#160;</text><text fill="#000000" font-family="Comic Sans MS" font-size="14" lengthAdjust="spacing" textLength="30" x="166" y="398.2914">data</text><text fill="#000000" font-family="Comic Sans MS" font-size="14" lengthAdjust="spacing" textLength="100" x="39.5" y="414.5882">transformation</text><text fill="#000000" font-family="Comic Sans MS" font-size="14" lengthAdjust="spacing" textLength="4" x="139.5" y="414.5882">&#160;</text><text fill="#000000" font-family="Comic Sans MS" font-size="14" lengthAdjust="spacing" textLength="26" x="143.5" y="414.5882">and</text><text fill="#000000" font-family="Comic Sans MS" font-size="14" lengthAdjust="spacing" textLength="4" x="169.5" y="414.5882">&#160;</text><text fill="#000000" font-family="Comic Sans MS" font-size="14" lengthAdjust="spacing" textLength="35" x="173.5" y="414.5882">state</text><text fill="#000000" font-family="Comic Sans MS" font-size="14" lengthAdjust="spacing" textLength="92" x="78" y="430.8851">management</text></g><!--entity mvc--><g id="elem_mvc"><polygon fill="#85BBF0" points="412.5,305.45,412.5,305.6602,422.4524,305.0357,432.4048,305.6433,442.3571,305.8497,452.3095,304.7366,462.2619,305.3723,472.2143,305.0235,482.1667,305.0665,492.119,305.3818,502.0714,304.7586,512.0238,306.0036,521.9762,304.8197,531.9286,305.2522,541.881,305.8819,551.8333,305.3642,561.7857,305.5182,571.7381,305.4181,581.6905,305.6285,591.6429,305.6891,601.5952,306.0357,611.5476,306.1211,621.5,305.45,621.5866,305.6592,621.886,305.6749,622.2662,305.8857,622.6502,306.1056,622.8222,305.8137,623.2678,306.1822,623.4767,306.2688,623.3229,306.498,623.7251,306.9574,623.5547,307.1797,623.8325,307.5877,624,307.95,624.7416,307.95,623.9513,318.3185,624.1053,328.687,624.3386,339.0555,624.4162,349.424,623.9961,359.7924,624.2872,370.1609,623.4276,380.5294,624.2844,390.8979,624.5482,401.2664,624.4445,411.6349,624.613,422.0034,624,432.3719,623.8512,432.3103,623.6527,432.6422,623.5157,432.9997,623.5425,433.425,623.3537,433.761,623.2678,434.1396,623.3547,434.3495,622.8919,434.2323,622.5169,434.3269,622.2362,434.6493,621.7685,434.5201,621.5,434.8719,621.5,434.3527,611.5476,435.5208,601.5952,435.3075,591.6429,435.6064,581.6905,434.5501,571.7381,435.1911,561.7857,435.4623,551.8333,434.3995,541.881,434.776,531.9286,434.9979,521.9762,435.5236,512.0238,434.8677,502.0714,435.3344,492.119,434.3181,482.1667,434.1946,472.2143,435.3755,462.2619,434.1549,452.3095,435.3808,442.3571,435.0785,432.4048,434.604,422.4524,434.5181,412.5,434.8719,412.5585,435.0132,412.1083,434.6332,411.8684,434.7613,411.3688,434.2623,411.1645,434.4762,410.7322,434.1396,410.8814,434.2014,410.6612,433.8173,410.4539,433.4386,410.5167,433.1717,410.3354,432.8037,410,432.3719,410.1693,432.3719,410.2682,422.0034,409.8697,411.6349,410.7165,401.2664,410.1549,390.8979,410.1726,380.5294,409.3916,370.1609,409.5948,359.7924,410.5307,349.424,410.4298,339.0555,409.9571,328.687,409.6778,318.3185,410,307.95,409.9326,307.9221,409.9351,307.5089,410.4206,307.2958,410.6671,306.9837,410.7479,306.6029,410.7322,306.1822,410.8209,306.3962,411.0683,305.9937,411.4505,305.9162,411.7435,305.6235,412.1827,305.6839,412.5,305.45" style="stroke:#78A8D8;stroke-width:0.5;"/><text fill="#000000" font-family="Comic Sans MS" font-size="12" font-style="italic" lengthAdjust="spacing" textLength="85" x="474.5" y="326.5887">&#171;component&#187;</text><text fill="#000000" font-family="Comic Sans MS" font-size="16" font-weight="bold" lengthAdjust="spacing" textLength="41" x="478.5" y="344.2703">Rest</text><text fill="#000000" font-family="Comic Sans MS" font-size="16" font-weight="bold" lengthAdjust="spacing" textLength="6" x="519.5" y="344.2703">&#160;</text><text fill="#000000" font-family="Comic Sans MS" font-size="16" font-weight="bold" lengthAdjust="spacing" textLength="30" x="525.5" y="344.2703">API</text><text fill="#000000" font-family="Comic Sans MS" font-size="12" font-style="italic" lengthAdjust="spacing" textLength="45" x="421.5" y="359.1824">[Spring</text><text fill="#000000" font-family="Comic Sans MS" font-size="12" font-style="italic" lengthAdjust="spacing" textLength="4" x="466.5" y="359.1824">&#160;</text><text fill="#000000" font-family="Comic Sans MS" font-size="12" font-style="italic" lengthAdjust="spacing" textLength="26" x="470.5" y="359.1824">MVC</text><text fill="#000000" font-family="Comic Sans MS" font-size="12" font-style="italic" lengthAdjust="spacing" textLength="4" x="496.5" y="359.1824">&#160;</text><text fill="#000000" font-family="Comic Sans MS" font-size="12" font-style="italic" lengthAdjust="spacing" textLength="4" x="500.5" y="359.1824">/</text><text fill="#000000" font-family="Comic Sans MS" font-size="12" font-style="italic" lengthAdjust="spacing" textLength="4" x="504.5" y="359.1824">&#160;</text><text fill="#000000" font-family="Comic Sans MS" font-size="12" font-style="italic" lengthAdjust="spacing" textLength="46" x="508.5" y="359.1824">custom</text><text fill="#000000" font-family="Comic Sans MS" font-size="12" font-style="italic" lengthAdjust="spacing" textLength="4" x="554.5" y="359.1824">&#160;</text><text fill="#000000" font-family="Comic Sans MS" font-size="12" font-style="italic" lengthAdjust="spacing" textLength="54" x="558.5" y="359.1824">mapping</text><text fill="#000000" font-family="Comic Sans MS" font-size="12" font-style="italic" lengthAdjust="spacing" textLength="55" x="489.5" y="373.1512">defiition]</text><text fill="#000000" font-family="Comic Sans MS" font-size="14" lengthAdjust="spacing" textLength="4" x="515" y="388.9764">&#160;</text><text fill="#000000" font-family="Comic Sans MS" font-size="14" lengthAdjust="spacing" textLength="62" x="420" y="405.2732">Converts</text><text fill="#000000" font-family="Comic Sans MS" font-size="14" lengthAdjust="spacing" textLength="4" x="482" y="405.2732">&#160;</text><text fill="#000000" font-family="Comic Sans MS" font-size="14" lengthAdjust="spacing" textLength="61" x="486" y="405.2732">between</text><text fill="#000000" font-family="Comic Sans MS" font-size="14" lengthAdjust="spacing" textLength="4" x="547" y="405.2732">&#160;</text><text fill="#000000" font-family="Comic Sans MS" font-size="14" lengthAdjust="spacing" textLength="33" x="551" y="405.2732">JSON</text><text fill="#000000" font-family="Comic Sans MS" font-size="14" lengthAdjust="spacing" textLength="4" x="584" y="405.2732">&#160;</text><text fill="#000000" font-family="Comic Sans MS" font-size="14" lengthAdjust="spacing" textLength="26" x="588" y="405.2732">and</text><text fill="#000000" font-family="Comic Sans MS" font-size="14" lengthAdjust="spacing" textLength="26" x="476.5" y="421.5701">Java</text><text fill="#000000" font-family="Comic Sans MS" font-size="14" lengthAdjust="spacing" textLength="4" x="502.5" y="421.5701">&#160;</text><text fill="#000000" font-family="Comic Sans MS" font-size="14" lengthAdjust="spacing" textLength="51" x="506.5" y="421.5701">objects</text></g><!--entity services--><g id="elem_services"><polygon fill="#85BBF0" points="437,521.18,437,521.3902,447,520.7657,457,521.3733,467,521.5797,477,520.4666,487,521.1023,497,520.7535,507,520.7965,517,521.1118,527,520.4886,537,521.7336,547,520.5497,557,520.9822,567,521.6119,577,521.0942,587,521.2482,597,521.18,596.9959,521.1702,597.3763,521.3814,597.7376,521.5465,598.1354,521.7997,598.4998,521.9724,598.7678,521.9122,598.977,521.9989,598.9926,522.2983,599.2034,522.6785,599.4234,523.0625,599.1315,523.2345,599.5,523.68,600.1785,523.68,599.2035,533.7212,600.0338,543.7624,599.005,553.8036,599.4315,563.8448,600.2416,573.886,599.4513,583.9272,599.6053,593.9684,599.8386,604.0095,599.9162,614.0507,599.4961,624.0919,599.5,634.1331,599.5885,634.1698,599.1773,634.4137,599.2947,634.8765,599.2295,635.2637,599.0511,635.604,598.7678,635.9009,598.846,636.0897,598.3526,635.8986,597.9775,635.9929,597.6278,636.1489,597.346,636.4685,597,636.6331,597,636.4366,587,637.3145,577,636.4584,567,636.2901,557,636.8614,547,635.9663,537,636.114,527,637.2821,517,637.0688,507,637.3676,497,636.3113,487,636.9523,477,637.2235,467,636.1607,457,636.5373,447,636.7591,437,636.6331,437.0831,636.8338,436.6459,636.4854,436.3519,636.4827,435.8687,636.0232,435.4994,635.8388,435.2322,635.9009,435.3873,635.9651,434.865,635.4559,435.0961,635.2587,434.8565,634.8666,434.5639,634.4525,434.5,634.1331,434.1462,634.1331,434.9588,624.0919,434.2007,614.0507,435.0919,604.0095,433.9473,593.9684,435.1174,583.9272,434.9843,573.886,434.745,563.8448,434.5472,553.8036,435.2266,543.7624,435.1136,533.7212,434.5,523.68,434.5521,523.7016,434.729,523.3607,434.7528,522.9563,435.16,522.7107,435.1335,522.2855,435.2322,521.9122,435.2542,521.9654,435.5082,521.5784,435.8876,521.4945,436.3606,521.6363,436.7013,521.4588,437,521.18" style="stroke:#78A8D8;stroke-width:0.5;"/><text fill="#000000" font-family="Comic Sans MS" font-size="12" font-style="italic" lengthAdjust="spacing" textLength="85" x="474.5" y="542.3187">&#171;component&#187;</text><text fill="#000000" font-family="Comic Sans MS" font-size="16" font-weight="bold" lengthAdjust="spacing" textLength="75" x="479.5" y="560.0003">Services</text><text fill="#000000" font-family="Comic Sans MS" font-size="12" font-style="italic" lengthAdjust="spacing" textLength="45" x="464" y="574.9124">[Spring</text><text fill="#000000" font-family="Comic Sans MS" font-size="12" font-style="italic" lengthAdjust="spacing" textLength="4" x="509" y="574.9124">&#160;</text><text fill="#000000" font-family="Comic Sans MS" font-size="12" font-style="italic" lengthAdjust="spacing" textLength="57" x="513" y="574.9124">Services]</text><text fill="#000000" font-family="Comic Sans MS" font-size="14" lengthAdjust="spacing" textLength="4" x="515" y="590.7376">&#160;</text><text fill="#000000" font-family="Comic Sans MS" font-size="14" lengthAdjust="spacing" textLength="44" x="444.5" y="607.0345">Server</text><text fill="#000000" font-family="Comic Sans MS" font-size="14" lengthAdjust="spacing" textLength="4" x="488.5" y="607.0345">&#160;</text><text fill="#000000" font-family="Comic Sans MS" font-size="14" lengthAdjust="spacing" textLength="29" x="492.5" y="607.0345">side</text><text fill="#000000" font-family="Comic Sans MS" font-size="14" lengthAdjust="spacing" textLength="4" x="521.5" y="607.0345">&#160;</text><text fill="#000000" font-family="Comic Sans MS" font-size="14" lengthAdjust="spacing" textLength="64" x="525.5" y="607.0345">validation</text><text fill="#000000" font-family="Comic Sans MS" font-size="14" lengthAdjust="spacing" textLength="4" x="450.5" y="623.3314">&#160;</text><text fill="#000000" font-family="Comic Sans MS" font-size="14" lengthAdjust="spacing" textLength="26" x="454.5" y="623.3314">and</text><text fill="#000000" font-family="Comic Sans MS" font-size="14" lengthAdjust="spacing" textLength="4" x="480.5" y="623.3314">&#160;</text><text fill="#000000" font-family="Comic Sans MS" font-size="14" lengthAdjust="spacing" textLength="63" x="484.5" y="623.3314">business</text><text fill="#000000" font-family="Comic Sans MS" font-size="14" lengthAdjust="spacing" textLength="4" x="547.5" y="623.3314">&#160;</text><text fill="#000000" font-family="Comic Sans MS" font-size="14" lengthAdjust="spacing" textLength="32" x="551.5" y="623.3314">logic</text></g><!--entity jpa--><g id="elem_jpa"><polygon fill="#85BBF0" points="415,711.64,415,711.8502,425.2,711.2257,435.4,711.8333,445.6,712.0397,455.8,710.9266,466,711.5623,476.2,711.2135,486.4,711.2565,496.6,711.5718,506.8,710.9486,517,712.1936,527.2,711.0097,537.4,711.4422,547.6,712.0719,557.8,711.5542,568,711.7082,578.2,711.6081,588.4,711.8185,598.6,711.8791,608.8,712.2257,619,711.64,619.0856,711.8467,619.4402,711.9956,619.7396,712.0113,620.1198,712.2221,620.5038,712.442,620.7678,712.3722,620.5457,712.2802,621.1232,712.8123,620.9693,713.0415,621.3715,713.501,621.2011,713.7233,621.5,714.14,621.4315,714.14,622.2416,724.5085,621.4513,734.877,621.6053,745.2455,621.8386,755.614,621.9162,765.9824,621.4961,776.3509,621.7872,786.7194,620.9276,797.0879,621.7844,807.4564,622.0482,817.8249,621.9445,828.1934,621.5,838.5619,621.6888,838.6401,621.2048,838.8538,621.0063,839.1858,620.8693,839.5433,620.8961,839.9686,620.7678,840.3296,620.7427,840.2691,620.5011,840.6859,620.0384,840.5687,619.6633,840.6633,619.3827,840.9857,619,841.0619,619,840.395,608.8,840.5427,598.6,841.7108,588.4,841.4975,578.2,841.7964,568,840.7401,557.8,841.3811,547.6,841.6523,537.4,840.5895,527.2,840.966,517,841.1879,506.8,841.7136,496.6,841.0577,486.4,841.5244,476.2,840.5081,466,840.3846,455.8,841.5655,445.6,840.3449,435.4,841.5708,425.2,841.2685,415,841.0619,414.9658,840.9794,414.6013,840.8065,414.3514,840.9103,413.9012,840.5304,413.6613,840.6584,413.2322,840.3296,413.062,840.2591,413.2759,840.0548,413.0885,839.6843,412.8683,839.3002,412.661,838.9215,412.5,838.5619,413.2266,838.5619,413.1136,828.1934,412.6693,817.8249,412.7682,807.4564,412.3697,797.0879,413.2165,786.7194,412.6549,776.3509,412.6726,765.9824,411.8916,755.614,412.0948,745.2455,413.0307,734.877,412.9298,724.5085,412.5,714.14,412.4868,714.1345,412.5472,713.7454,412.7255,713.405,412.728,712.9918,413.2135,712.7787,413.2322,712.3722,413.3266,712.6,413.6529,712.3879,414.028,712.2934,414.2755,711.8908,414.6576,711.8133,415,711.64" style="stroke:#78A8D8;stroke-width:0.5;"/><text fill="#000000" font-family="Comic Sans MS" font-size="12" font-style="italic" lengthAdjust="spacing" textLength="85" x="474.5" y="732.7787">&#171;component&#187;</text><text fill="#000000" font-family="Comic Sans MS" font-size="16" font-weight="bold" lengthAdjust="spacing" textLength="30" x="502" y="750.4603">JPA</text><text fill="#000000" font-family="Comic Sans MS" font-size="12" font-style="italic" lengthAdjust="spacing" textLength="30" x="422.5" y="765.3724">[Java</text><text fill="#000000" font-family="Comic Sans MS" font-size="12" font-style="italic" lengthAdjust="spacing" textLength="4" x="452.5" y="765.3724">&#160;</text><text fill="#000000" font-family="Comic Sans MS" font-size="12" font-style="italic" lengthAdjust="spacing" textLength="74" x="456.5" y="765.3724">Persistence</text><text fill="#000000" font-family="Comic Sans MS" font-size="12" font-style="italic" lengthAdjust="spacing" textLength="4" x="530.5" y="765.3724">&#160;</text><text fill="#000000" font-family="Comic Sans MS" font-size="12" font-style="italic" lengthAdjust="spacing" textLength="19" x="534.5" y="765.3724">API</text><text fill="#000000" font-family="Comic Sans MS" font-size="12" font-style="italic" lengthAdjust="spacing" textLength="4" x="553.5" y="765.3724">&#160;</text><text fill="#000000" font-family="Comic Sans MS" font-size="12" font-style="italic" lengthAdjust="spacing" textLength="4" x="557.5" y="765.3724">/</text><text fill="#000000" font-family="Comic Sans MS" font-size="12" font-style="italic" lengthAdjust="spacing" textLength="4" x="561.5" y="765.3724">&#160;</text><text fill="#000000" font-family="Comic Sans MS" font-size="12" font-style="italic" lengthAdjust="spacing" textLength="46" x="565.5" y="765.3724">custom</text><text fill="#000000" font-family="Comic Sans MS" font-size="12" font-style="italic" lengthAdjust="spacing" textLength="54" x="456.5" y="779.3412">mapping</text><text fill="#000000" font-family="Comic Sans MS" font-size="12" font-style="italic" lengthAdjust="spacing" textLength="4" x="510.5" y="779.3412">&#160;</text><text fill="#000000" font-family="Comic Sans MS" font-size="12" font-style="italic" lengthAdjust="spacing" textLength="63" x="514.5" y="779.3412">definition]</text><text fill="#000000" font-family="Comic Sans MS" font-size="14" lengthAdjust="spacing" textLength="4" x="515" y="795.1664">&#160;</text><text fill="#000000" font-family="Comic Sans MS" font-size="14" lengthAdjust="spacing" textLength="62" x="423" y="811.4632">Converts</text><text fill="#000000" font-family="Comic Sans MS" font-size="14" lengthAdjust="spacing" textLength="4" x="485" y="811.4632">&#160;</text><text fill="#000000" font-family="Comic Sans MS" font-size="14" lengthAdjust="spacing" textLength="61" x="489" y="811.4632">between</text><text fill="#000000" font-family="Comic Sans MS" font-size="14" lengthAdjust="spacing" textLength="4" x="550" y="811.4632">&#160;</text><text fill="#000000" font-family="Comic Sans MS" font-size="14" lengthAdjust="spacing" textLength="27" x="554" y="811.4632">SQL</text><text fill="#000000" font-family="Comic Sans MS" font-size="14" lengthAdjust="spacing" textLength="4" x="581" y="811.4632">&#160;</text><text fill="#000000" font-family="Comic Sans MS" font-size="14" lengthAdjust="spacing" textLength="26" x="585" y="811.4632">and</text><text fill="#000000" font-family="Comic Sans MS" font-size="14" lengthAdjust="spacing" textLength="26" x="476.5" y="827.7601">Java</text><text fill="#000000" font-family="Comic Sans MS" font-size="14" lengthAdjust="spacing" textLength="4" x="502.5" y="827.7601">&#160;</text><text fill="#000000" font-family="Comic Sans MS" font-size="14" lengthAdjust="spacing" textLength="51" x="506.5" y="827.7601">objects</text></g><!--link ui to client--><g id="link_ui_client"><path d="M124,183.87 L124.2802,183.87 L123.4476,194.267 L124.2577,204.664 L124.5329,215.061 L123.0488,225.458 L123.8964,235.855 L123.4313,246.252 L123.4887,256.649 L123.9091,267.046 L123.0782,277.443 L124,287.84 " fill="none" style="stroke:#666666;stroke-width:1.0;"/><polygon fill="#666666" points="124,295.84,124.0656,295.8646,124.4707,294.1915,125.2603,292.6626,125.9247,291.0868,126.1773,289.3565,127,287.84,127,287.8141,125.8,287.6978,124.6,287.7122,123.4,287.8173,122.2,287.6095,121,287.84,121.1728,287.9048,121.4033,289.3662,122.1383,291.0169,122.9348,292.6906,123.3732,294.23,124,295.84" style="stroke:#666666;stroke-width:1.0;"/><text fill="#666666" font-family="Comic Sans MS" font-size="12" font-weight="bold" lengthAdjust="spacing" textLength="34" x="125" y="225.5887">uses</text></g><!--link mvc to services--><g id="link_mvc_services"><path d="M517,435.16 L517.2802,435.16 L516.4476,444.8738 L517.2577,454.5875 L517.5329,464.3012 L516.0488,474.015 L516.8964,483.7287 L516.4313,493.4425 L516.4887,503.1562 L517,512.87 " fill="none" style="stroke:#666666;stroke-width:1.0;"/><polygon fill="#666666" points="517,520.87,517.0656,520.8946,517.4707,519.2215,518.2603,517.6926,518.9247,516.1168,519.1773,514.3865,520,512.87,520,512.8441,518.8,512.7278,517.6,512.7422,516.4,512.8473,515.2,512.6395,514,512.87,514.1728,512.9348,514.4033,514.3962,515.1383,516.0469,515.9348,517.7206,516.3732,519.26,517,520.87" style="stroke:#666666;stroke-width:1.0;"/><text fill="#666666" font-family="Comic Sans MS" font-size="12" font-weight="bold" lengthAdjust="spacing" textLength="34" x="518" y="488.3187">uses</text></g><!--link services to jpa--><g id="link_services_jpa"><path d="M517,636.97 L517.2802,636.97 L516.4476,646.4543 L517.2577,655.9386 L517.5329,665.4229 L516.0488,674.9071 L516.8964,684.3914 L516.4313,693.8757 L517,703.36 " fill="none" style="stroke:#666666;stroke-width:1.0;"/><polygon fill="#666666" points="517,711.36,517.0656,711.3846,517.4707,709.7115,518.2603,708.1826,518.9247,706.6068,519.1773,704.8765,520,703.36,520,703.3341,518.8,703.2178,517.6,703.2322,516.4,703.3373,515.2,703.1295,514,703.36,514.1728,703.4248,514.4033,704.8862,515.1383,706.5369,515.9348,708.2106,516.3732,709.75,517,711.36" style="stroke:#666666;stroke-width:1.0;"/><text fill="#666666" font-family="Comic Sans MS" font-size="12" font-weight="bold" lengthAdjust="spacing" textLength="34" x="518" y="678.7787">uses</text></g><!--link client to mvc--><g id="link_client_mvc"><path d="M225.46,370.16 L225.46,370.4402 L235.2528,369.6076 L245.0456,370.4177 L254.8383,370.6929 L264.6311,369.2088 L274.4239,370.0564 L284.2167,369.5913 L294.0094,369.6487 L303.8022,370.0691 L313.595,369.2382 L323.3878,370.8982 L333.1806,369.3196 L342.9733,369.8963 L352.7661,370.7359 L362.5589,370.0456 L372.3517,370.251 L382.1444,370.1174 L391.9372,370.398 L401.73,370.16 " fill="none" style="stroke:#666666;stroke-width:1.0;"/><polygon fill="#666666" points="409.73,370.16,409.7546,370.2256,408.0815,369.4307,406.5526,369.0203,404.9768,368.4847,403.2465,367.5373,401.73,367.16,401.7041,367.16,401.5878,368.36,401.6022,369.56,401.7073,370.76,401.4995,371.96,401.73,373.16,401.7948,373.3328,403.2562,372.3633,404.9069,371.8983,406.5806,371.4948,408.12,370.7332,409.73,370.16" style="stroke:#666666;stroke-width:1.0;"/><text fill="#666666" font-family="Comic Sans MS" font-size="12" font-weight="bold" lengthAdjust="spacing" textLength="35" x="300" y="350.2987">HTTP</text><text fill="#666666" font-family="Comic Sans MS" font-size="12" font-style="italic" lengthAdjust="spacing" textLength="34" x="243.5" y="364.2674">[JSON</text><text fill="#666666" font-family="Comic Sans MS" font-size="12" font-style="italic" lengthAdjust="spacing" textLength="4" x="277.5" y="364.2674">&#160;</text><text fill="#666666" font-family="Comic Sans MS" font-size="12" font-style="italic" lengthAdjust="spacing" textLength="4" x="281.5" y="364.2674">/</text><text fill="#666666" font-family="Comic Sans MS" font-size="12" font-style="italic" lengthAdjust="spacing" textLength="4" x="285.5" y="364.2674">&#160;</text><text fill="#666666" font-family="Comic Sans MS" font-size="12" font-style="italic" lengthAdjust="spacing" textLength="53" x="289.5" y="364.2674">GraphQL</text><text fill="#666666" font-family="Comic Sans MS" font-size="12" font-style="italic" lengthAdjust="spacing" textLength="4" x="342.5" y="364.2674">&#160;</text><text fill="#666666" font-family="Comic Sans MS" font-size="12" font-style="italic" lengthAdjust="spacing" textLength="4" x="346.5" y="364.2674">/</text><text fill="#666666" font-family="Comic Sans MS" font-size="12" font-style="italic" lengthAdjust="spacing" textLength="4" x="350.5" y="364.2674">&#160;</text><text fill="#666666" font-family="Comic Sans MS" font-size="12" font-style="italic" lengthAdjust="spacing" textLength="37" x="354.5" y="364.2674">gRPC]</text></g><text fill="#FF0000" font-family="Comic Sans MS" font-size="10" lengthAdjust="spacing" textLength="33" x="299.5" y="871.3422">Sketch</text><!--SRC=[TLB1Rjf04BtxAoPM3Y0XSScnH38MRQ2qSR6JAb8bQxqUp0PxrzfTarHL_htZDS6G01VMysRtlJTlheJaPPCZV0blnk7DhNTrMaX39IqJ4lKvgAgLH6blFI-U9MdyVPQ4TscSF2rdW-ki25MfzCH_sGYB_WYkrqfPrB-Pba8M4p_UekMR7aZmrKvyV-WjWwVxXoGDulsBWw7dJLKZSwR_3apDHk37KK0N_HKoRc4CWIoQacawFJRe3-6V1_Gxw1iqWfeVvdt5NBvDmBogIwpQDg1BfIe41oPpuAMW8XX1CzYnKkJC2YL9yIbRr-O8Z8NGVRNF1gz26MBvslgcVzuOgohWAl_8Aj6-ABqbgAeQARZZ6G7nCR2QIRDMkd95fyjOPX4g9bdX7jWhMc7fd1_qD0ODOMz7uymOtwBC2PnsfrP9N6jA2AOKovbXLZl-xYs8vaVzFnx3tbN5whejvhWMmes96ccPTgZ9O4O64IKiulkVpiA2xHYex1cvDPy6Qb3l14VJKksFHxGd9JgZ_fWG_Edcb3M6DjcOBj9FDCzkjHRTQZb14MeZZ4N9iVLwtfsyR2_-jRpahWt7JVB8t3wVTxX7EcLzV8IcgyEUTO7S9KdaXBSZ7SCtpUeDqO-XM4MXF_mF]--></g></svg>
